<svg xmlns="http://www.w3.org/2000/svg" viewBox="0 0 73.73 76.5"><defs><style>.cls-1{fill:#fff;}.cls-2{fill:#de2900;}.cls-3{fill:none;stroke:#000;stroke-miterlimit:10;stroke-width:0.27px;}</style></defs><title>POPI</title><g id="Layer_2" data-name="Layer 2"><g id="Layer_1-2" data-name="Layer 1"><path class="cls-1" d="M6.39,55c2.58-2.43,7.5,3,14.67,1.9,8.87-1.37,8.79-10.82,17.4-12.77,8.44-1.91,12.3,6.32,22,4.08,6.5-1.51,8.8-6.13,11.14-4.9,3.14,1.65,3,12-1.63,19.57-9.43,15.46-34.44,13.79-39.4,13.32C25.12,75.69,13,74.54,7.75,65.88,5.61,62.33,4.3,57,6.39,55Z"/><path class="cls-2" d="M52.79,8.27c-2.24,2.23-4.87,4.85-4.14,6.94.85,2.44,6.07,3.42,9.86,2.16C66.19,14.81,69.58,2.57,67,.4,64.63-1.59,56.71,4.36,52.79,8.27Z"/><path class="cls-2" d="M15.07,14.24C17.32,16.43,20,19,19.24,21.06c-.85,2.4-6.06,3.34-9.85,2.08C1.7,20.61-1.73,8.58.85,6.46,3.2,4.52,11.14,10.39,15.07,14.24Z"/><path class="cls-1" d="M5,31.37c-2.81,5.18-2.76,8.08-2.72,9a10.09,10.09,0,0,0,1.91,6c2.5,3.19,7.39,4.31,11.14,3.26C20.36,48.18,19.79,44,26.5,39a27.79,27.79,0,0,1,12.23-5.17A23.86,23.86,0,0,1,51.5,35.17c4.6,1.95,5.15,4.21,8.42,4.35,3.67.16,7.91-2.44,9-5.71,1.86-5.72-6.06-13.29-12-16.84-15.33-9.25-36-2.79-44.57,4.89A36.84,36.84,0,0,0,5,31.37Z"/><path class="cls-3" d="M30.58,65.34A20.75,20.75,0,0,0,51.77,59.9"/><circle cx="48.51" cy="24.57" r="4.08"/><circle cx="23.78" cy="24.57" r="4.08"/></g></g></svg>