<svg xmlns="http://www.w3.org/2000/svg" viewBox="0 0 1080.56 1928.56"><defs><style>.cls-1,.cls-6{fill:#003f42;}.cls-1,.cls-11,.cls-12,.cls-13,.cls-16,.cls-2,.cls-3,.cls-4,.cls-6,.cls-7,.cls-8{stroke:#000;}.cls-1,.cls-10,.cls-11,.cls-12,.cls-13,.cls-16,.cls-2,.cls-3,.cls-4,.cls-6,.cls-7,.cls-8,.cls-9{stroke-miterlimit:10;}.cls-1{stroke-width:0.98px;}.cls-2{fill:#b00003;}.cls-11,.cls-13,.cls-2,.cls-3{stroke-width:4.02px;}.cls-3{fill:#4b4596;}.cls-4{fill:#0a0015;}.cls-12,.cls-16,.cls-4,.cls-6,.cls-7,.cls-9{stroke-width:1px;}.cls-10,.cls-13,.cls-5,.cls-8{fill:#fff;}.cls-10,.cls-8{stroke-width:0.12px;}.cls-9{fill:#495500;}.cls-10,.cls-9{stroke:#1f0815;}.cls-11{fill:#461a00;}.cls-12{fill:#002729;}.cls-14{fill:#8a0000;}.cls-15{fill:#fff515;}.cls-16{fill:#006369;}.cls-17{opacity:0.8;}.cls-18{fill:#fafaea;}</style></defs><title>Asset 108wrk</title><g id="Layer_2" data-name="Layer 2"><g id="Layer_1-2" data-name="Layer 1"><rect class="cls-1" x="0.49" y="0.49" width="1079.58" height="1927.58"/><path class="cls-2" d="M510.22,760.86,497,755.09l-80.48-35.26L340,753.36l-18,7.88L274.44,782.1V906.65l142.12,62.27,142.13-62.27V782.1Zm-73,132.68a55.82,55.82,0,0,1-75.07-22.87,54.75,54.75,0,0,1,23.1-74.35,56,56,0,0,1,11.85-4.59,29.88,29.88,0,0,1,14.77-35.38,30.43,30.43,0,0,1,40.94,12.47,29.77,29.77,0,0,1-4.9,34.8,54.74,54.74,0,0,1-10.69,89.92Z"/><path class="cls-3" d="M723,894.87A55.81,55.81,0,0,1,648,872a54.73,54.73,0,0,1,23.1-74.34,56,56,0,0,1,11.84-4.59,29.89,29.89,0,0,1,14.78-35.39,30.43,30.43,0,0,1,40.94,12.48A29.77,29.77,0,0,1,733.7,805,54.73,54.73,0,0,1,723,894.87Zm74-134-13.17-5.77-80.48-35.26L626.8,753.36l-18,7.88L561.21,782.1V906.65l3,1.3,139.16,61,2.82-1.24,139.3-61V782.1Z"/><path class="cls-4" d="M561.46,558.59c-189.86,0-343.77,158-343.77,353s153.91,353,343.77,353,343.79-158,343.79-353S751.33,558.59,561.46,558.59ZM357.14,869.67a54.75,54.75,0,0,1,23.1-74.35,56,56,0,0,1,11.85-4.59,29.88,29.88,0,0,1,14.77-35.38,30.44,30.44,0,0,1,40.95,12.47,29.79,29.79,0,0,1-4.91,34.8,54.75,54.75,0,0,1-10.68,89.92A55.83,55.83,0,0,1,357.14,869.67Zm383.92-50.14A54.74,54.74,0,0,1,718,893.87,55.81,55.81,0,0,1,642.9,871,54.73,54.73,0,0,1,666,796.66a56.16,56.16,0,0,1,11.84-4.59,29.89,29.89,0,0,1,14.78-35.39,30.43,30.43,0,0,1,40.94,12.48,29.77,29.77,0,0,1-4.91,34.8A54.7,54.7,0,0,1,741.06,819.53Zm-37,273L561.94,1154.8l-142.12-62.27V1023l47.61-20.86,18-7.88,76.53-33.53L642.41,996l13.18,5.77L704.06,1023Z"/><path class="cls-5" d="M411.57,942a98.71,98.71,0,0,1-87.32-52,96.3,96.3,0,0,1-7.19-74.22,97.34,97.34,0,0,1,48.25-57.91,99.21,99.21,0,0,1,133.41,40.65,96.34,96.34,0,0,1,7.19,74.24,97.32,97.32,0,0,1-48.24,57.89A99.61,99.61,0,0,1,411.58,942ZM396.82,791.55a56.29,56.29,0,0,0-11.64,4.54,55,55,0,0,0-27.27,32.74A54.38,54.38,0,0,0,362,870.78a55.79,55.79,0,0,0,49.36,29.41,56.43,56.43,0,0,0,26.05-6.43,55,55,0,0,0,10.93-90.16,30,30,0,0,0,4.77-34.9,30.54,30.54,0,0,0-27-16.1,30.92,30.92,0,0,0-14.27,3.52A30.14,30.14,0,0,0,396.82,791.55Z"/><path d="M411.4,746.73a98.47,98.47,0,0,1,87.1,51.9,96.07,96.07,0,0,1,7.17,74,97.08,97.08,0,0,1-48.12,57.75,99.48,99.48,0,0,1-46,11.35,98.44,98.44,0,0,1-87.09-51.9,96,96,0,0,1-7.18-74,97.13,97.13,0,0,1,48.12-57.76,99.48,99.48,0,0,1,46-11.35m-14.89,44.64a56.63,56.63,0,0,0-11.45,4.5,55.3,55.3,0,0,0-27.39,32.88,54.65,54.65,0,0,0,4.08,42.15A56.34,56.34,0,0,0,437.5,894a55.25,55.25,0,0,0,27.38-32.87A54.66,54.66,0,0,0,460.8,819a55.37,55.37,0,0,0-12.13-15.38,30.22,30.22,0,0,0,4.63-35,30.79,30.79,0,0,0-27.24-16.23,31.12,31.12,0,0,0-14.38,3.55,30.37,30.37,0,0,0-15.17,35.47m14.89-45.14a99.24,99.24,0,0,0-46.21,11.41C316.88,783,298.46,842.27,324,890.11a99.49,99.49,0,0,0,133.75,40.76c48.31-25.32,66.74-84.63,41.16-132.47a99.07,99.07,0,0,0-87.54-52.17Zm-.07,153.71a55.62,55.62,0,0,1-49.14-29.27,54.75,54.75,0,0,1,23.1-74.35,56,56,0,0,1,11.85-4.59,29.88,29.88,0,0,1,14.77-35.38,30.43,30.43,0,0,1,40.94,12.47,29.77,29.77,0,0,1-4.9,34.8,54.74,54.74,0,0,1-10.69,89.92,55.73,55.73,0,0,1-25.93,6.4Z"/><polygon class="cls-6" points="437.94 1391.7 436.76 1336.71 485.68 1356.93 498.98 1362.42 580.19 1395.97 655.98 1360.84 673.79 1352.58 720.94 1330.72 722.12 1385.71 674.97 1407.57 657.16 1415.83 584.17 1449.66 584.16 1449.66 581.37 1450.96 500.16 1417.41 486.86 1411.91 440.93 1392.94 437.94 1391.7"/><path class="cls-7" d="M784.7,799.74C759.13,751.9,699.24,733.65,651,759s-66.74,84.63-41.16,132.46,85.45,66.09,133.75,40.76S810.27,847.57,784.7,799.74ZM723,894.87A55.81,55.81,0,0,1,648,872a54.73,54.73,0,0,1,23.1-74.34,56,56,0,0,1,11.84-4.59,29.89,29.89,0,0,1,14.78-35.39,30.43,30.43,0,0,1,40.94,12.48A29.77,29.77,0,0,1,733.7,805,54.73,54.73,0,0,1,723,894.87Z"/><ellipse class="cls-8" cx="758.55" cy="807.17" rx="12.12" ry="12"/><ellipse class="cls-8" cx="472.79" cy="810.17" rx="12.12" ry="12"/><ellipse class="cls-8" cx="472.79" cy="810.17" rx="12.12" ry="12"/><path class="cls-8" d="M723,894.87A55.81,55.81,0,0,1,648,872a54.73,54.73,0,0,1,23.1-74.34,56,56,0,0,1,11.84-4.59,29.89,29.89,0,0,1,14.78-35.39,30.43,30.43,0,0,1,40.94,12.48A29.77,29.77,0,0,1,733.7,805,54.73,54.73,0,0,1,723,894.87Z"/><path class="cls-9" d="M498.88,799.6c-25.56-47.83-85.45-66.08-133.75-40.76S298.4,843.47,324,891.31s85.46,66.08,133.75,40.76S524.46,847.44,498.88,799.6Zm-61.67,95.14a55.83,55.83,0,0,1-75.08-22.87,54.74,54.74,0,0,1,23.11-74.35,55.74,55.74,0,0,1,11.84-4.59,29.89,29.89,0,0,1,14.77-35.38A30.44,30.44,0,0,1,452.8,770a29.79,29.79,0,0,1-4.91,34.8,54.75,54.75,0,0,1-10.68,89.92Z"/><ellipse class="cls-10" cx="472.64" cy="806.14" rx="12.12" ry="12"/><path class="cls-11" d="M796.9,1057.8l-.34.38-1.74,1C795.52,1058.74,796.21,1058.26,796.9,1057.8Z"/><polygon class="cls-12" points="721.22 1265.53 721.22 1320.53 579.1 1382.8 436.98 1320.53 436.98 1265.53 579.1 1327.8 721.22 1265.53"/><path class="cls-13" d="M437.26,893.54a55.82,55.82,0,0,1-75.07-22.87,54.75,54.75,0,0,1,23.1-74.35,56,56,0,0,1,11.85-4.59,29.88,29.88,0,0,1,14.77-35.38,30.43,30.43,0,0,1,40.94,12.47,29.77,29.77,0,0,1-4.9,34.8,54.74,54.74,0,0,1-10.69,89.92Z"/><path class="cls-14" d="M376.08,622.09c-2.55,1.5-5.26,3.14-8.07,4.94a265.53,265.53,0,0,0-93.46,102q-2.48,4.8-4.49,9.11l-1.06-3c-.12-.36-.25-.72-.38-1.08s-.15-.44-.23-.66c-.27-.75-.53-1.49-.79-2.24h0L153.81,467,375.72,621.84Z"/><path class="cls-15" d="M976.64,464.15,862.85,728.25s0,0,0,0l-.37.86A344,344,0,0,0,758.05,621Z"/><polygon class="cls-16" points="441.69 1464.69 440.51 1409.7 489.42 1429.92 502.72 1435.41 583.94 1468.96 659.73 1433.83 677.54 1425.57 724.69 1403.71 725.87 1458.7 678.72 1480.56 660.91 1488.82 587.92 1522.65 587.91 1522.65 585.12 1523.95 503.9 1490.39 490.6 1484.9 444.68 1465.93 441.69 1464.69"/><g class="cls-17"><path class="cls-18" d="M1022.13,1877a35.45,35.45,0,0,1-2.84,8,24.45,24.45,0,0,1-11.37,10.48,22.38,22.38,0,0,1-4.74,1.54,22.07,22.07,0,0,1-7.89.16,24.29,24.29,0,0,1-6.9-1.72c-.66-.3-.21-.18,1,.23a45.45,45.45,0,0,0,5.89,1.49,26.09,26.09,0,0,0,3.92.1,22.05,22.05,0,0,0,4.72-.69,22.36,22.36,0,0,1-10.76-2.44,32.09,32.09,0,0,1-5.55-1.23,72.12,72.12,0,0,1-11.6-4.78,21.62,21.62,0,0,1-4.87-3.37,13,13,0,0,1-3.11-4.65,24.4,24.4,0,0,1-1.52-5.57,21.31,21.31,0,0,1-.1-6,33.65,33.65,0,0,0,1.17,8.48,15.05,15.05,0,0,0,3.95,6.71,26.28,26.28,0,0,0,7.26,4.41,64.48,64.48,0,0,0,8.47,3.21,9.09,9.09,0,0,1-.87-.47,70.61,70.61,0,0,1-8.65-3.92,18.65,18.65,0,0,1-6.52-5.13,7.42,7.42,0,0,1-1.31-2.24,13.83,13.83,0,0,0,1.31,2.24c1.41,1.69,3.55,2.69,6.17,3.86,1.57.83,3.44,2.1,5.16,2.82a43,43,0,0,1,3.84,2.37c.88.32,1.76.62,2.66.88a5,5,0,0,1,.86.06l0,0c-.44-.74-2.11-1.78-4.31-3.19l-3.65-2.36c-1.3-.86-2.75-1.79-3.94-2.69a18.18,18.18,0,0,1-2.92-2.62,8.84,8.84,0,0,1-1.42-2.26c-.66-1.41-1-2.86-1.32-3.49-.48-1-1.31-2-2.08-3.25a10.51,10.51,0,0,1-1.66-4.36c-.12-1.12.42-2.1-.06-3-.31-.09-.55-.54-.78-1-.13-2.39,1-4.75.18-6.6-.34-1.33,4.91-4.64,4-4.93-3.42-1.19-.93-.33-.42-3.29.1-.35-1.26-1.63-1-2.35,1.1-2.36,0-3.19-.14-6-.6-4.31,1.67-4.92,0-8.94a30.57,30.57,0,0,1-.39-3.44c-.11-1.58-.21-3.09-.21-3.09.53-2.25.59-4.15.85-5.88a7.26,7.26,0,0,1,2.39-4.75,8,8,0,0,1-.06-3.44,20.08,20.08,0,0,1,1.1-3.46c.9-2.3,2.17-4.52,2.58-6.7.94-4.33,3.14-5.58,5.84-8.66.58-.95.7-1.78,1.36-2.21s0-2.33.57-3.27l.79.59c.21-.31.61-.93.81-1.24s.47-.1.73.1c.53.4,1.06.79,1.72.38a35,35,0,0,0,2.88-3.76c.07-.8.13-1.6.18-2.41s.11-1.6.14-2.41a3.74,3.74,0,0,1-.95-.86l-.1-1.53c-.75-.64-1.73-1-2.23-1.41-2.45-1.11-4-4-6.44-4.6-.72-.13-2.06,2.28-3.72,2.91-.48.1-1-.86-1.76-1.51-.67,1.49-1.65,1.17-2.17.2l-.46.65-1-.87c-1.41,1.68-3,3.43-4.43,5.28a11.9,11.9,0,0,0-2.6,6,14.42,14.42,0,0,0,.13,3.61c.06.54-.83,1.37-1,1.72.59.94,1.6,1.17,2.4,1.76-1.88,2.52-5.43,8.33-2.07,9.12-.82,2.28.53,3.17,0,5.63-.63,3.25-1.42,7.38-2.2,11.45-.23,2.26-.74,4.37-1.15,6.52l-.38,2.34c-1.26,8.1-2.68,15.1-3.55,22.15-.19,1.77-.36,3.53-.5,5.31s-.15,3.58-.17,5.41.12,3.69.26,5.59a57.45,57.45,0,0,0,4.84,18.7,22.14,22.14,0,0,0,4.13,5.7,25.33,25.33,0,0,0,5.48,4c1.88,1.05,3.74,1.89,5.54,2.69s3.62,1.57,5.46,2.27a49.65,49.65,0,0,0,11.31,3,29.28,29.28,0,0,0,11.53-.62,26.41,26.41,0,0,0,9.42-4.78,23,23,0,0,0,5.85-6.83,18.58,18.58,0,0,0,2.15-6.19A20.5,20.5,0,0,0,1022.13,1877Z"/></g><g class="cls-17"><path class="cls-18" d="M995.72,1819.55c-2-2.76-7.65-2.58-10.18-3.73a7.94,7.94,0,0,1-2.24-.77c-.47-.27.59,0,2.24.77.73.16,1.59.31,2.6.47-1.34-1.18-2.6-2.36-3.51-3.33-.62,0-1.25-.1-1.88-.18-2.81-.31-5.5-.3-8.26-1-1-.28-3.16-.36-4.12-1,4,.34,8,.53,12.06.63a3,3,0,0,1-.34-.2c-2.13-.33-4.25-.72-6.36-1.12a3.31,3.31,0,0,1-1.09-.22l1.09.22a23.42,23.42,0,0,0,2.84-.41c.63,0,1.36.51,2,.55s1,.62,1.52,1l1,.15a.79.79,0,0,1,.28-.13v0c-.47-1.25-2.72-2.62-5-3.7s-4.51-1.81-5.15-1.55c-1,.32-2,2.39-3.12,2.63-.38.08-.7-.48-1,0a1.94,1.94,0,0,1-.34.79c-.77.15-1.53-1-2.14-.11-.43.4-1.45-4.79-1.55-3.84-.42,3.47-.12,1-1.07.6-.12-.08-.55,1.33-.78,1.17-.76-.9-1,.27-2,.63-1.41,1-1.59-1.17-2.93,1a21.3,21.3,0,0,1-2.16,1.53c-1.46-.41-2.54,1.24-3.49-1.29-1.53,2-3.08-.69-4.54-.45s-1.86-1.56-2.9-3.2c-.32-.28-.6-.16-.74-.66s-.82.78-1.14.5l.22-.94c-.11-.09-.32-.27-.42-.37s0-.4,0-.71a3.69,3.69,0,0,0,.15-1.74A6.52,6.52,0,0,0,942,1800a16.89,16.89,0,0,0-1.7,1.38,10.24,10.24,0,0,1-.31,1.19l-.54.64c-.23.92-.36,1.94-.52,2.56-.41,2.66-1.44,5.15-1.67,7.59-.06.72.79,1.08,1,2.39a12.2,12.2,0,0,1-.55,2.16c.53.08.41,1.1.06,1.93l.23.19-.32,1.24c1.17,1.38,2.39,3.86,3.89,2.85a5.18,5.18,0,0,0,1.25-1.19c.19-.22.47.38.59.48a20.09,20.09,0,0,0,.63-2.8c.85,1,2.79,2.94,3.09-.45.77.25,1.09-1.32,1.91-1.4a35.85,35.85,0,0,1,3.82-.25,7.1,7.1,0,0,1,2.16,0h.77c5.29,0,9.19,2.83,14.42.27s10.58-2.13,15.18-1,8.33,2.86,9.68,3.1Z"/></g><g class="cls-17"><path class="cls-18" d="M1006.25,1854c-2.53-2.52-9-1.72-12-2.69a9.27,9.27,0,0,1-2.62-.59c-.55-.24.68,0,2.62.59.84.1,1.84.18,3,.25a51.65,51.65,0,0,1-4.22-3c-.71,0-1.44,0-2.18,0l-4.77-.08a28.48,28.48,0,0,1-4.74-.46c-1.15-.23-3.64-.25-4.75-.84,4.6.23,9.21.2,13.83,0a2.33,2.33,0,0,1-.39-.19c-1.23-.08-2.46-.19-3.68-.32s-2.43-.24-3.65-.41a3.91,3.91,0,0,1-1.25-.16l1.25.16a26.72,26.72,0,0,0,3.23-.56c.72,0,1.58.43,2.31.43a5.53,5.53,0,0,1,1.79.86l1.1.09a1.07,1.07,0,0,1,.32-.16s0,0,0,0c-.6-1.22-3.24-2.41-5.84-3.36s-5.2-1.59-5.92-1.29c-1.15.35-2.15,2.45-3.47,2.73-.44.1-.82-.47-1.15,0a1.63,1.63,0,0,1-.36.8c-.89.17-1.77-1-2.45-.06-.49.4-1.74-4.78-1.84-3.82-.42,3.47-.12.94-1.21.61-.13-.08-.6,1.33-.87,1.17-.88-.89-1.18.27-2.24.63-1.61,1-1.82-1.17-3.34.93a26.56,26.56,0,0,1-2.47,1.49c-1.67-.45-2.92,1.17-4-1.39-1.77,2-3.52-.81-5.18-.64s-2.1-1.66-3.24-3.37c-.36-.31-.68-.2-.83-.71s-.94.72-1.3.42l.27-.92-.47-.4c-.11-.1,0-.41.07-.71a3.38,3.38,0,0,0,.21-1.73,7.53,7.53,0,0,0-1.4-1.54,18.13,18.13,0,0,0-2,1.25,9.39,9.39,0,0,1-.4,1.17l-.63.59c-.29.91-.48,1.93-.68,2.53-.55,2.64-1.81,5-2.16,7.48-.09.71.87,1.14,1.08,2.48a10.87,10.87,0,0,1-.7,2.11c.61.13.44,1.14,0,1.94l.26.22-.4,1.21c.66.74,1.33,1.76,2.06,2.49s1.52,1.13,2.4.68a5.81,5.81,0,0,0,1.49-1.1c.22-.21.53.42.67.52a17.08,17.08,0,0,0,.78-2.77c1,1.11,3.22,3.12,3.61-.27.88.29,1.28-1.27,2.23-1.31,1.27-.11,2.86-.1,4.43-.1a9.9,9.9,0,0,1,2.5.07l.89,0a67.69,67.69,0,0,1,8.41,1.17,14.3,14.3,0,0,0,8.33-1c6-2.74,12.16-2.6,17.53-1.9s9.82,2,11.4,2.12Z"/></g></g></g></svg>