<svg xmlns="http://www.w3.org/2000/svg" viewBox="0 0 1080 1497.74"><defs><style>.cls-1{fill:#fff;}.cls-2{fill:#24242d;}.cls-3,.cls-5{fill:none;}.cls-4{fill:#de2900;}.cls-5{stroke:#000;stroke-miterlimit:10;stroke-width:0.39px;}</style></defs><title>Asset 104wrk</title><g id="Layer_2" data-name="Layer 2"><g id="Layer_1-2" data-name="Layer 1"><rect x="540" width="540" height="1497"/><path class="cls-1" d="M562,1l-6.59,1495.75-555,1V2Z"/><path class="cls-2" d="M810.21,1042.24V1176L783,1174.62V1048.1l-16.67-3.31q.47-5.55.92-11.09Z"/><path class="cls-1" d="M993.23,609c-41.82,29.7-109.46,26.81-126.06-2.85-17.19-30.7,22.31-86.51,65.89-111,26.88-15.11,76.3-30.14,97.42-8.54C1054.67,511.29,1036.37,578.37,993.23,609Z"/><path class="cls-1" d="M865.46,636.13c-48.94-8.65-103.27,68.7-125.21,127.66-36.48,98.14-14.9,230.66,37.58,244.68,52.12,13.92,138.67-88,152.46-191.7C940.11,743,916.25,645.12,865.46,636.13ZM846.1,899.05l-47.64-10.46,28.71-205L872,694.49Q859.05,796.77,846.1,899.05Z"/><path class="cls-1" d="M783,1174.62v7.28l-54.44-2.85q5.75-69.73,11.46-139.49l26.31,5.23Q761,1109,755.77,1173.2Z"/><path class="cls-1" d="M783,1048.1v126.52l-27.21-1.42q5.28-64.2,10.54-128.41Z"/><path d="M872,694.49Q859.05,796.77,846.1,899.05l-47.64-10.46,28.71-205Z"/><path d="M86.22,602.54c41.83,29.7,109.47,26.81,126.07-2.85,17.19-30.7-22.31-86.51-65.9-111C119.52,473.56,70.1,458.53,49,480.13,24.78,504.84,43.09,571.92,86.22,602.54Z"/><path d="M339.2,757.34C317.27,698.38,262.93,621,214,629.68c-50.79,9-74.65,106.91-64.84,180.64C163,914.06,249.51,1015.94,301.63,1002,354.11,988,375.69,855.48,339.2,757.34ZM233.36,892.6,207.47,688l44.82-10.86,28.71,205Z"/><path class="cls-2" d="M269.25,1035.79v133.8l27.22-1.42V1041.65l16.67-3.31q-.45-5.55-.91-11.09Z"/><path d="M296.47,1041.65v133.8l54.44-2.85-11.46-139.49-26.31,5.23Z"/><path class="cls-1" d="M207.47,688,233.36,892.6,281,882.14l-28.71-205Z"/><path class="cls-3" d="M0,2H.42L539.27,1,1080,0"/><path class="cls-1" d="M923.84,103.27c3.57-3.59,10.38,4.44,20.3,2.8,12.26-2,12.15-16,24.06-18.86,11.68-2.82,17,9.33,30.45,6,9-2.21,12.18-9,15.42-7.22,4.33,2.44,4.09,17.79-2.26,28.89-13,22.83-47.64,20.36-54.51,19.67-7.55-.77-24.36-2.47-31.58-15.25C922.76,114.08,921,106.17,923.84,103.27Z"/><path class="cls-4" d="M988,34.24c-3.1,3.29-6.74,7.16-5.73,10.25,1.18,3.61,8.4,5,13.65,3.18,10.62-3.77,15.31-21.85,11.73-25.06C1004.41,19.68,993.45,28.47,988,34.24Z"/><path class="cls-4" d="M935.85,43.05c3.1,3.25,6.76,7.06,5.76,10.08-1.17,3.54-8.37,4.93-13.63,3.08-10.63-3.75-15.37-21.51-11.81-24.64C919.43,28.7,930.41,37.37,935.85,43.05Z"/><path class="cls-1" d="M922,68.35c-3.88,7.65-3.82,11.94-3.76,13.24a15.68,15.68,0,0,0,2.63,8.83c3.47,4.71,10.23,6.36,15.42,4.82,6.91-2.06,6.13-8.31,15.41-15.65A37.07,37.07,0,0,1,968.58,72a31,31,0,0,1,17.67,2c6.36,2.88,7.12,6.21,11.65,6.42,5.07.24,10.94-3.6,12.41-8.43,2.57-8.44-8.39-19.63-16.54-24.88C972.56,33.43,944,43,932.11,54.31A54.07,54.07,0,0,0,922,68.35Z"/><path class="cls-5" d="M957.3,118.51a27.08,27.08,0,0,0,14.28.81,28.82,28.82,0,0,0,15-8.83"/><ellipse cx="982.32" cy="58.24" rx="5.48" ry="5.84"/><ellipse cx="948.01" cy="58.24" rx="5.48" ry="5.84"/></g></g></svg>