<svg xmlns="http://www.w3.org/2000/svg" viewBox="0 0 1084.18 2023.19"><defs><style>.cls-1{fill:#009279;stroke-width:0.89px;}.cls-1,.cls-2,.cls-3,.cls-4,.cls-5{stroke:#000;}.cls-1,.cls-2,.cls-3,.cls-4{stroke-miterlimit:10;}.cls-2{fill:#ffffa8;}.cls-2,.cls-3,.cls-4{stroke-width:4.01px;}.cls-4{fill:none;}.cls-5{font-size:72.19px;stroke-width:1px;font-family:MS-Mincho, MS Mincho;}.cls-6{opacity:0.8;}.cls-7{fill:#1d1d1d;}</style></defs><title>Asset 107wrk</title><g id="Layer_2" data-name="Layer 2"><g id="Layer_1-2" data-name="Layer 1"><rect class="cls-1" x="0.45" y="0.45" width="1083.28" height="2022.29"/><rect class="cls-2" x="103.95" y="470.24" width="325" height="95.25" rx="12.02"/><path class="cls-2" d="M353.45,1041.21c10.76,7,45.68-51.53,100-48.12,46.58,2.92,56.07,48.37,100,48.12,48.36-.27,62.78-53.83,104-48.12,27.43,3.79,30.56,31.25,72,44.11,20.69,6.42,39.47,5.64,52,4-56.9-122.42-64.14-218.85-60-284.73,5.62-89.65,32.16-170-16-224.58-3.74-4.24-31.05-34.31-72-36.09-49.12-2.15-99,37.22-124,100.25-82.41,38.51-166.18,79-164,84.22,2.56,6.1,115.87-56.43,148-24.06C549.27,712.47,332.52,1027.62,353.45,1041.21Z"/><path class="cls-3" d="M659.45,1367.05l-29,35.09-34,3q-.5-11-1-22.06l32-38.1Z"/><path class="cls-4" d="M627.45,1345l-104-106.27q-3.18-13.15-6.37-26.32-26.33-108.66-52.63-217.31"/><path class="cls-3" d="M446.45,1359q-1,15-2,30.08l-59,5,24-47.12,20,3Z"/><path class="cls-4" d="M429.45,1350q43.82-68.8,87.63-137.61h0q69.18-108.66,138.37-217.3"/><ellipse class="cls-3" cx="591.95" cy="578.52" rx="12.5" ry="12.53"/><text class="cls-5" transform="translate(116.23 547.59)">プンプン</text><text/><g class="cls-6"><path class="cls-7" d="M137.77,145.65a36.47,36.47,0,0,1-2.84,8,23.83,23.83,0,0,1-6.86,7.83,23.37,23.37,0,0,1-4.51,2.65,22.28,22.28,0,0,1-4.75,1.54,22,22,0,0,1-7.88.16,23.91,23.91,0,0,1-6.9-1.73c-.66-.29-.21-.17,1,.24a46.7,46.7,0,0,0,5.89,1.49,26,26,0,0,0,3.92.1,22.05,22.05,0,0,0,4.72-.69,22.3,22.3,0,0,1-10.76-2.44,32.09,32.09,0,0,1-5.55-1.23,72.12,72.12,0,0,1-11.6-4.78,22,22,0,0,1-4.87-3.37,13,13,0,0,1-3.11-4.65,24.5,24.5,0,0,1-1.52-5.58,21.24,21.24,0,0,1-.1-6,33.65,33.65,0,0,0,1.17,8.48,15.05,15.05,0,0,0,4,6.71,26.77,26.77,0,0,0,7.26,4.41,64.89,64.89,0,0,0,8.46,3.21c-.29-.14-.58-.31-.87-.47a71.16,71.16,0,0,1-8.64-3.92,18.56,18.56,0,0,1-6.52-5.13,7.42,7.42,0,0,1-1.31-2.24,13.13,13.13,0,0,0,1.31,2.24c1.41,1.69,3.55,2.69,6.16,3.86,1.57.82,3.45,2.1,5.17,2.82a39.42,39.42,0,0,1,3.83,2.37c.89.32,1.77.62,2.67.88a5.12,5.12,0,0,1,.86.06l0-.05c-.45-.74-2.11-1.77-4.31-3.18l-3.65-2.36c-1.31-.86-2.75-1.79-3.94-2.69a17.76,17.76,0,0,1-2.92-2.62,8.84,8.84,0,0,1-1.42-2.26c-.67-1.41-1-2.86-1.32-3.49-.48-1-1.32-2-2.08-3.25a10.51,10.51,0,0,1-1.66-4.36c-.12-1.12.42-2.1-.06-3-.32-.09-.55-.54-.79-1-.12-2.39,1-4.74.19-6.6-.34-1.32,4.91-4.63,4-4.92-3.42-1.19-.93-.33-.42-3.29.1-.35-1.26-1.63-1-2.35,1.1-2.36,0-3.19-.14-6-.6-4.31,1.67-4.92.05-8.94a32.24,32.24,0,0,1-.4-3.44l-.2-3.09a57.5,57.5,0,0,0,.84-5.88A7.32,7.32,0,0,1,88.68,83a8,8,0,0,1-.06-3.44,20.08,20.08,0,0,1,1.1-3.46c.9-2.3,2.17-4.52,2.57-6.7.95-4.33,3.15-5.58,5.85-8.66.58-1,.7-1.78,1.36-2.21s0-2.33.57-3.27l.79.59.81-1.24c.21-.3.47-.1.73.1.53.4,1,.79,1.72.38A36.32,36.32,0,0,0,107,51.29c.07-.8.13-1.6.18-2.41s.11-1.6.14-2.41a3.58,3.58,0,0,1-.95-.86l-.1-1.53c-.75-.64-1.73-1-2.23-1.41-2.45-1.11-4-4-6.44-4.6-.72-.13-2.06,2.28-3.73,2.91-.47.1-1-.86-1.75-1.51-.67,1.49-1.65,1.17-2.17.2l-.46.65-1-.87c-1.42,1.68-3,3.43-4.43,5.28a12,12,0,0,0-2.61,6,15,15,0,0,0,.13,3.62c.06.54-.82,1.37-1,1.72.59.93,1.6,1.17,2.4,1.76-1.89,2.52-5.43,8.33-2.07,9.12-.82,2.28.53,3.17,0,5.63C80.3,75.82,79.51,80,78.72,84c-.22,2.26-.74,4.37-1.15,6.52l-.37,2.34C75.94,101,74.52,108,73.65,115c-.19,1.77-.36,3.53-.5,5.31s-.16,3.58-.17,5.41.11,3.69.26,5.59a46.26,46.26,0,0,0,.82,5.95,48.74,48.74,0,0,0,4,12.75,22.42,22.42,0,0,0,4.14,5.7,25.33,25.33,0,0,0,5.48,4c1.88,1.05,3.74,1.89,5.54,2.68s3.62,1.58,5.45,2.28a49.87,49.87,0,0,0,11.32,3,29.29,29.29,0,0,0,11.53-.62,26.49,26.49,0,0,0,9.42-4.78,23,23,0,0,0,5.85-6.84A18.47,18.47,0,0,0,139,149.3,20.5,20.5,0,0,0,137.77,145.65Z"/></g><g class="cls-6"><path class="cls-7" d="M111.35,88.17c-2-2.76-7.64-2.58-10.17-3.73a7.83,7.83,0,0,1-2.24-.77c-.47-.27.59,0,2.24.77.73.16,1.59.31,2.6.47-1.34-1.18-2.61-2.36-3.51-3.33-.62,0-1.25-.1-1.89-.18-2.8-.31-5.49-.3-8.25-1-1-.28-3.16-.36-4.12-1,4,.34,8,.53,12.06.63a2.33,2.33,0,0,1-.34-.2c-2.13-.34-4.25-.72-6.36-1.12a3.31,3.31,0,0,1-1.09-.22l1.09.22a23.42,23.42,0,0,0,2.84-.41c.63,0,1.36.5,2,.55s1,.62,1.53,1l1,.15a.72.72,0,0,1,.28-.13s0,0,0,0c-.47-1.25-2.72-2.62-5-3.7s-4.52-1.81-5.16-1.55c-1,.32-2,2.39-3.11,2.63-.38.08-.71-.48-1,0a1.8,1.8,0,0,1-.33.79c-.78.15-1.53-1-2.14-.11-.43.39-1.45-4.79-1.55-3.84-.43,3.47-.12,1-1.08.6-.11-.08-.54,1.33-.77,1.17-.76-.9-1,.27-2,.63-1.41,1-1.59-1.17-2.93,1a23,23,0,0,1-2.16,1.53c-1.46-.41-2.54,1.24-3.49-1.3-1.53,2-3.09-.68-4.54-.44s-1.86-1.56-2.9-3.2c-.32-.28-.6-.16-.75-.66s-.81.78-1.13.49l.22-.93-.43-.37c-.1-.09,0-.4,0-.71A3.69,3.69,0,0,0,58.94,70a6.31,6.31,0,0,0-1.29-1.44A16.66,16.66,0,0,0,56,69.94a9.28,9.28,0,0,1-.31,1.19l-.54.64c-.24.93-.37,2-.52,2.57-.41,2.66-1.44,5.15-1.68,7.59,0,.72.8,1.08,1,2.39a12.2,12.2,0,0,1-.55,2.16c.53.08.4,1.1.06,1.93l.22.19-.31,1.23c1.17,1.39,2.39,3.87,3.89,2.86a5.18,5.18,0,0,0,1.25-1.19c.19-.22.47.38.59.47a19.63,19.63,0,0,0,.62-2.79c.86,1,2.8,2.94,3.1-.45.77.25,1.09-1.32,1.91-1.4a33.4,33.4,0,0,1,3.82-.25,7,7,0,0,1,2.15,0h.77c5.3,0,9.2,2.83,14.43.27s10.58-2.13,15.17-1,8.34,2.86,9.69,3.1Z"/></g><g class="cls-6"><path class="cls-7" d="M121.89,122.62c-2.53-2.52-9-1.72-12-2.69a9.35,9.35,0,0,1-2.63-.59c-.55-.24.69,0,2.63.59.84.1,1.84.18,3,.25a50,50,0,0,1-4.22-3c-.71,0-1.44,0-2.18,0l-4.77-.08a27.39,27.39,0,0,1-4.74-.47c-1.15-.22-3.64-.24-4.75-.83,4.59.22,9.21.2,13.83,0a2.26,2.26,0,0,1-.39-.18c-1.23-.08-2.46-.19-3.68-.32s-2.44-.24-3.65-.41a3.91,3.91,0,0,1-1.25-.16l1.25.16a26.72,26.72,0,0,0,3.23-.56c.72,0,1.58.42,2.31.43a5.63,5.63,0,0,1,1.79.86l1.1.09a1,1,0,0,1,.32-.16s0,0,0,0c-.6-1.22-3.24-2.41-5.84-3.37s-5.2-1.58-5.92-1.28c-1.15.35-2.15,2.44-3.47,2.73-.44.1-.82-.47-1.15,0a1.72,1.72,0,0,1-.36.8c-.89.17-1.77-1-2.45-.06-.49.4-1.74-4.78-1.84-3.82-.43,3.47-.12.94-1.21.61-.13-.08-.6,1.33-.87,1.17-.88-.89-1.18.27-2.24.62-1.61,1-1.83-1.17-3.34.94A26.56,26.56,0,0,1,76,115.3c-1.67-.45-2.92,1.16-4-1.39-1.77,2-3.52-.81-5.18-.64s-2.1-1.66-3.24-3.37c-.36-.31-.68-.2-.83-.71s-.94.72-1.3.42l.27-.92-.47-.4c-.12-.1,0-.41.06-.71a3.42,3.42,0,0,0,.22-1.74,8,8,0,0,0-1.4-1.53,19.27,19.27,0,0,0-2,1.25,8.73,8.73,0,0,1-.39,1.16l-.63.6c-.3.91-.48,1.93-.68,2.53-.55,2.63-1.82,5-2.17,7.47-.08.72.88,1.15,1.08,2.49a10.2,10.2,0,0,1-.69,2.11c.6.13.44,1.14,0,1.94l.26.22-.4,1.21c.66.74,1.33,1.76,2.06,2.49s1.52,1.13,2.4.68a5.62,5.62,0,0,0,1.48-1.1c.23-.21.54.41.68.52a17.37,17.37,0,0,0,.78-2.77c1,1.11,3.22,3.12,3.61-.27.88.29,1.27-1.27,2.23-1.31,1.27-.11,2.86-.1,4.43-.1a9.46,9.46,0,0,1,2.5.07l.89,0a69.52,69.52,0,0,1,8.4,1.16,14.32,14.32,0,0,0,8.34-1c6-2.74,12.16-2.61,17.53-1.9s9.82,2,11.4,2.11Z"/></g></g></g></svg>