<svg xmlns="http://www.w3.org/2000/svg" xmlns:xlink="http://www.w3.org/1999/xlink" viewBox="0 0 1243.56 2194"><defs><style>.cls-1{fill:url(#radial-gradient);}.cls-2{fill:#080051;}.cls-3{fill:#06016d;}.cls-4{fill:#d92800;stroke-width:3.45px;}.cls-14,.cls-4{stroke:#000;stroke-miterlimit:10;}.cls-5{fill:#0a0aff;}.cls-6{fill:#00eeeb;}.cls-7{fill:#fff;}.cls-8{fill:#610d00;}.cls-9{fill:#0000b0;}.cls-10{fill:#2700a2;}.cls-11{opacity:0.8;}.cls-12{fill:#fff01d;}.cls-13{fill:#de2900;}.cls-14{fill:none;stroke-width:1.15px;}.cls-15{fill:#1d1d1d;}</style><radialGradient id="radial-gradient" cx="621.78" cy="1097.39" r="915.64" gradientTransform="matrix(1, 0.04, -0.04, 1.03, 40.96, -58.91)" gradientUnits="userSpaceOnUse"><stop offset="0.13"/><stop offset="0.74" stop-color="#0400a0"/></radialGradient></defs><title>Asset 105wrk</title><g id="Layer_2" data-name="Layer 2"><g id="Layer_1-2" data-name="Layer 1"><rect class="cls-1" width="1243.56" height="2194"/><path class="cls-2" d="M170.35,529.35c22.09-59.48,26.83-88.5,58.72-110.54,65.66-45.36,168.18-7.17,180.78-2.3,57.74,22.32,53.27,44.13,95.57,54.12,83.81,19.78,115.88-62.4,199.2-54.12,89.79,8.93,98,108.88,205,124.36,67.43,9.75,84.46-27,131.26-4.61,56,26.82,100.47,112.44,95.57,178.48-.84,11.35-3.42,25.87,2.31,44.9,12,40.05,43.48,42.26,54.11,67.94,21.12,51-79.64,97.93-77.14,180.77,1.88,62.57,60.4,70.95,56.42,126.66-3.8,53.1-57.74,56.62-126.66,152-50.16,69.4-42.38,96.3-77.15,112.84-49.81,23.69-88.4-20.78-194.59-54.12-34.64-10.88-177.48-52.29-331.62-20.73-90.34,18.5-114.7,47.76-173.87,32.24-56.92-14.92-114.31-63-131.26-124.35-21.29-77.08,40.7-104.57,38-194.6C171.2,913.37,49.83,899.69,48.3,785,47.26,707.56,102.5,712.08,170.35,529.35Z"/><path class="cls-3" d="M161,608.35c22.09-59.49,26.83-88.5,58.72-110.54,65.65-45.37,168.18-7.17,180.78-2.31,57.74,22.33,53.27,44.14,95.57,54.12,83.81,19.79,115.88-62.4,199.2-54.12,89.79,8.93,98,108.89,205,124.36,67.43,9.75,84.46-27,131.26-4.6,56,26.81,100.47,112.44,95.57,178.47-.84,11.36-3.42,25.88,2.31,44.91,12,40.05,43.48,42.26,54.11,67.93,21.12,51-79.64,97.93-77.14,180.78,1.88,62.56,60.4,70.94,56.42,126.66-3.8,53.1-57.74,56.62-126.66,152-50.16,69.4-42.38,96.31-77.15,112.84-49.81,23.69-88.4-20.78-194.59-54.12-34.64-10.87-177.48-52.28-331.62-20.72-90.34,18.49-114.7,47.75-173.87,32.24-56.92-14.93-114.31-63-131.26-124.36-21.29-77.08,40.7-104.57,38-194.59C161.88,992.36,40.51,978.68,39,864,37.94,786.56,93.18,791.07,161,608.35Z"/><path class="cls-4" d="M170.24,699.31c22.09-59.49,26.83-88.5,58.72-110.54,65.66-45.36,168.19-7.17,180.78-2.3,57.74,22.32,53.27,44.13,95.57,54.12,83.81,19.78,115.88-62.4,199.2-54.12,89.79,8.93,98,108.88,205,124.36,67.43,9.75,84.46-27,131.26-4.61,56,26.82,100.47,112.44,95.57,178.47-.84,11.36-3.42,25.88,2.31,44.91,12,40,43.48,42.26,54.11,67.94,21.12,51-79.63,97.93-77.14,180.77,1.88,62.57,60.4,70.94,56.42,126.66-3.8,53.1-57.74,56.62-126.66,152-50.16,69.41-42.38,96.31-77.15,112.84-49.81,23.69-88.4-20.77-194.59-54.11C739,1504.81,596.12,1463.4,442,1495c-90.33,18.5-114.7,47.75-173.87,32.24-56.92-14.92-114.31-63-131.26-124.36-21.29-77.07,40.7-104.57,38-194.59-3.76-124.92-125.12-138.6-126.66-253.32C47.15,877.52,102.39,882,170.24,699.31Z"/><path class="cls-5" d="M284.46,861.55c16.52-44.49,20.07-66.18,43.92-82.67,49.1-33.92,125.78-5.36,135.2-1.72,43.18,16.7,39.84,33,71.47,40.47,62.68,14.8,86.66-46.66,149-40.47,67.15,6.68,73.25,81.43,153.28,93,50.43,7.3,63.17-20.2,98.17-3.44,41.89,20,75.13,84.09,71.47,133.47-.63,8.5-2.56,19.36,1.72,33.59,9,30,32.52,31.6,40.48,50.81,15.79,38.11-59.56,73.24-57.7,135.19,1.41,46.79,45.17,53.06,42.2,94.73-2.84,39.71-43.18,42.34-94.73,113.67-37.51,51.9-31.69,72-57.69,84.39C844,1530.29,815.11,1497,735.69,1472.1c-25.9-8.14-132.73-39.11-248-15.51-67.56,13.84-85.79,35.72-130,24.12-42.57-11.17-85.5-47.1-98.17-93-15.92-57.64,30.44-78.2,28.42-145.53-2.81-93.43-93.58-103.66-94.73-189.45C192.4,994.83,233.72,998.21,284.46,861.55Z"/><path class="cls-6" d="M366.84,939.23c11.93-32.13,14.49-47.79,31.71-59.69,35.45-24.5,90.82-3.88,97.62-1.25,31.18,12.06,28.76,23.84,51.6,29.23,45.26,10.68,62.58-33.7,107.57-29.23,48.49,4.82,52.89,58.8,110.67,67.15,36.42,5.27,45.61-14.58,70.89-2.48,30.25,14.48,54.25,60.71,51.6,96.37-.45,6.13-1.84,14,1.25,24.25,6.5,21.63,23.48,22.82,29.22,36.68,11.4,27.52-43,52.89-41.66,97.62,1,33.79,32.62,38.31,30.47,68.4-2,28.67-31.18,30.57-68.4,82.07-27.08,37.48-22.88,52-41.65,60.93-26.9,12.79-47.74-11.22-105.08-29.22-18.71-5.87-95.84-28.23-179.07-11.19-48.78,10-61.94,25.78-93.89,17.41-30.74-8.06-61.73-34-70.88-67.15-11.49-41.62,22-56.47,20.52-105.08-2-67.46-67.57-74.85-68.4-136.79C300.37,1035.46,330.2,1037.9,366.84,939.23Z"/><path class="cls-7" d="M444.82,1539.37v218.78h65.63l9.21-201.51a68,68,0,0,1-74.84-17.27Z"/><path class="cls-7" d="M618.69,1577.37q-4,91.55-8.06,183.08h69.08l20.73-199.2c-1.48,2.39-16.62,26-44.91,27.64C636.4,1590,622.68,1580.39,618.69,1577.37Z"/><path class="cls-8" d="M420.64,1288.36c-36.73,42.42-25.76,116.78,0,164.65,45.36,84.32,142.63,97.75,153.14,99,94,11.43,161.13-46.88,178.47-63.33C800.5,1443,808.6,1383,824.79,1263c1.8-13.27,3.71-33-6.9-40.31-8.18-5.64-22.9-3.32-31.09,4.61-13.8,13.36.4,33.43-11.52,48.36-8.88,11.13-27.15,11-63.33,10.36-42.53-.77-46.57-7.7-65.63-2.3-26.44,7.5-24.74,22.57-51.81,31.09-2.72.86-40.28,12.1-70.24-6.91-26-16.51-22.4-40.68-42.61-47.21C460.69,1254,434.2,1272.69,420.64,1288.36Z"/><path class="cls-9" d="M355,1246.91c-35.38-3.6-73.94,74.81-81.75,138.17-1.93,15.69-5.57,45.26,6.91,51.81,18.07,9.49,57.76-35.64,67.94-47.21,27-30.71,51.23-58.26,44.9-93.26C389.39,1276.44,374.9,1248.93,355,1246.91Z"/><path class="cls-10" d="M850.13,1225c45.63,85.4,40.42,117,72.54,129,1.29.48,29.36,10.59,42.6-2.3,25.74-25.06-13.2-128.58-81.75-161.21-13.27-6.31-39.95-15.82-47.21-6.9C830.59,1190.6,839.75,1205.61,850.13,1225Z"/><g class="cls-11"><path class="cls-12" d="M411.74,890.5a9.67,9.67,0,0,1,.18-1.3,9.31,9.31,0,0,1,.39-1.2c.16-.35.34-.68.53-1a10,10,0,0,1,.61-.84,10.68,10.68,0,0,1,2.53-2.21,24.93,24.93,0,0,1,5.11-2.4,91.63,91.63,0,0,1,11.61-3c8.45-1.74,18.27-3.16,28.37-4.37s20.46-2.19,29.94-2.84,18.13-.77,24.6-.56c10,.17,17.58.76,23.25,1.29,2.39.27.82.11-3.46-.19s-11.29-.82-19.79-1.1c-7.59-.14-16.61.08-27.12.92,6.57-.17,13.05-.16,19,.08s11.33.64,15.81,1.11c6.61.19,13.27.52,20,1.08,29.77,2.33,58.35,6.76,87.45,12,5.27,1,13.67,2.42,22,4s16.58,3.29,21.61,4.55c-21.19-4.41-42.61-8-64-11.36s-42.91-6.34-64.51-8l3.48.43c11.33,1,22.63,2.44,33.91,4S605.73,883,617,884.86c3.83.61,7.69,1.26,11.65,2l-11.65-2c-10-1.56-19.78-2.84-30.7-4.23l-10.58-1.55c-3.6-.55-7.21-1-10.6-1.41-2.75-.35-5.4-.69-8-1.08s-5.18-.77-7.8-1.11c-3.39-.33-6.78-.58-10.17-.84l-3.14-.08.13,0c2.09.53,9,1.42,18.34,2.69s21.18,3.07,33.15,5.08,24.11,4.21,34.14,6,17.93,3.22,21.45,3.74c11.21,1.7,21.65,2.1,34,4.5,4.13.81,7.5,2,10.7,2.37a15.44,15.44,0,0,1,3.57.29l1.52.37,1,.26c.63.17,1.23.36,1.83.55,1.18.37,2.28.77,3.31,1.15,2.08.8,3.86,1.46,6.44,2.38a1.61,1.61,0,0,1,.81.7,1,1,0,0,1-.21,1.17,3.42,3.42,0,0,1-1.71.81,14.15,14.15,0,0,1-2.14.31,28.05,28.05,0,0,1-3.78,0c-2.09-.15-3.09-.38-2.83-.15.66.54.89.87.94,1s-.12.2-.46.16a19.47,19.47,0,0,0-3.84-.33l-.1,0h0l-.16,0-.81.18-2,.5a24.31,24.31,0,0,1-4.44.76c-8.7,0-11.22,1-21.22,1.67-14.85,1.3-18.14-.22-31.39,1.52-.8.09-6.39.44-11.78.73l-10.58.51c-16.19-.35-26.3.54-38.87-1.69-14.65.91-34-2-49.49-3.06s-21.88-2.92-35.24-5.52c-3.83-.63-6.72-.88-8.91-1.51s-7.75-.42-11.55-1.17l1.05-.51-5.06-1c-1.26-.26-.9-.43-.55-.6.7-.34,1.4-.68-.76-1.36-5.22-1.23-10.53-2.47-15.86-3.81-5.37-.8-10.65-1.7-15.46-2.88a2.93,2.93,0,0,1-1.51.38,38.13,38.13,0,0,1-3.94-1.16c-.94.25-1.12,1-1.75,1.12-.48.81-2.16.95-3.57.67a3.68,3.68,0,0,1-1.78-.87c-.47-.42-.88-.54-1.32-.14a2.62,2.62,0,0,0,0,1c.06.25.14.54.25.87s.29.58.48.9a11.9,11.9,0,0,0,3.41,3.09c2.74,1.78,6,3.14,7.94,4.25.88.57-1.55.44-2.76.71,2.78,1,4.19,1.54,4.6,1.94s-.15.58-1.4.51c1.31.47,2.6.88,2.6.88l-1.56.48a215.74,215.74,0,0,0,21.65,6.32A141.4,141.4,0,0,0,472,915.05c2.95.3,7.9.42,11.19.48a64.25,64.25,0,0,1,6.48,1c2.36-.35,2.11-1.11,3.15-1.66,5,.88,12.93,2.15,19.56,2.81s11.95.78,11.71-.44c8.12.75,9.83-.24,18.3.21,11.21.54,25.44,1.14,39.48,1.51l22.51.39,8.06,0c19.79,0,37.73-.13,55.12-.68,4.35-.14,8.66-.32,13-.55l6.44-.4,3.23-.24,3.32-.29c3.13-.31,6.28-.65,9.31-1.13a61.48,61.48,0,0,0,8.47-1.82,25.34,25.34,0,0,0,6.16-2.75,13.36,13.36,0,0,0,2.29-1.78,7.23,7.23,0,0,0,.9-1.17,5.29,5.29,0,0,0,.63-1.64c-.13-2.15-1.22-3.24-2.34-4.39a22.28,22.28,0,0,0-4.24-3.11c-3.35-2-8.4-3.68-13.53-5.1-1.3-.34-2.59-.7-3.9-1l-2-.48-1.47-.34q-2.77-.63-5.59-1.2-5.62-1.16-11.46-2.15c-13.54-2.32-27.24-4.41-40.91-6.47s-27.3-4.06-40.73-6c-26.87-3.77-52.94-6.74-76.72-7.36-5.94-.16-11.74-.13-17.35,0s-11,.51-16.18.88c-10.33.74-19.79,1.64-28.21,2.64-16.87,2-29.43,4.37-36.69,7.4a27.81,27.81,0,0,0-4.22,2.79,13,13,0,0,0-2.34,2.42,9.07,9.07,0,0,0-1.14,2.05A7.57,7.57,0,0,0,411.74,890.5Z"/></g><path class="cls-7" d="M464.39,1175.52c10.95-10.29,31.79,12.76,62.18,8.06,37.55-5.81,37.22-45.87,73.69-54.12,35.76-8.09,52.14,26.77,93.27,17.27,27.54-6.36,37.3-25.94,47.21-20.73,13.29,7,12.52,51-6.91,82.91-40,65.5-145.92,58.41-167,56.42-23.11-2.19-74.59-7.07-96.72-43.76C461.09,1206.55,455.53,1183.84,464.39,1175.52Z"/><path class="cls-13" d="M661,977.46c-9.47,9.45-20.62,20.56-17.54,29.4,3.62,10.37,25.73,14.5,41.8,9.15,32.55-10.83,46.89-62.7,35.94-71.9C711.17,935.68,677.59,960.9,661,977.46Z"/><path class="cls-13" d="M501.18,1002.76c9.51,9.3,20.69,20.25,17.64,28.92-3.58,10.15-25.65,14.12-41.74,8.81C444.52,1029.74,430,978.8,440.9,969.8,450.87,961.57,484.53,986.45,501.18,1002.76Z"/><path class="cls-7" d="M458.63,1075.34c-11.89,22-11.69,34.25-11.51,38,.26,5.25.78,16.06,8.06,25.33,10.63,13.52,31.31,18.24,47.21,13.82,21.18-5.9,18.79-23.84,47.21-44.91a117.69,117.69,0,0,1,51.81-21.88c8.7-1.24,30.79-4.14,54.12,5.76,19.5,8.27,21.81,17.81,35.7,18.42,15.53.69,33.49-10.33,38-24.18,7.89-24.23-25.69-56.33-50.66-71.39C613.62,975.15,526,1002.52,489.72,1035,480.59,1043.22,468.32,1057.46,458.63,1075.34Z"/><path class="cls-14" d="M566.87,1219.27a87.92,87.92,0,0,0,89.81-23"/><circle cx="642.87" cy="1046.55" r="17.27"/><circle cx="538.08" cy="1046.55" r="17.27"/><g class="cls-11"><path class="cls-15" d="M86,101.68a21.63,21.63,0,0,1-1.7,4.78,14.4,14.4,0,0,1-9.6,7.16,13.39,13.39,0,0,1-4.69.1,14.51,14.51,0,0,1-4.11-1c-.77-.4,1,.43,4.11,1a14.87,14.87,0,0,0,5.14-.36,13.34,13.34,0,0,1-6.41-1.45,19.11,19.11,0,0,1-3.3-.73,42.5,42.5,0,0,1-6.91-2.85,9.19,9.19,0,0,1-4.75-4.78,14.39,14.39,0,0,1-.91-3.32,12.3,12.3,0,0,1-.06-3.56c.08,3.52.77,6.94,3.05,9a15.66,15.66,0,0,0,4.32,2.63,38.68,38.68,0,0,0,5,1.91,5.21,5.21,0,0,1-.52-.28,41.76,41.76,0,0,1-5.15-2.34,10.87,10.87,0,0,1-3.88-3,4.2,4.2,0,0,1-.78-1.33,6.82,6.82,0,0,0,.78,1.33,9.68,9.68,0,0,0,3.67,2.3c.93.49,2,1.25,3.07,1.68A24.23,24.23,0,0,1,64.7,110c.52.19,1,.37,1.58.52a3.12,3.12,0,0,1,.52,0l0,0a10.87,10.87,0,0,0-2.57-1.89L62,107.21c-.78-.51-1.64-1.07-2.35-1.6A11.12,11.12,0,0,1,58,104.05a5.69,5.69,0,0,1-.85-1.35c-.39-.84-.59-1.7-.78-2.07-.57-1.16-2-2.52-2.23-4.54-.07-.67.25-1.25,0-1.78-.19,0-.33-.33-.47-.6-.07-1.42.62-2.83.11-3.93-.2-.79,2.92-2.76,2.38-2.94-2-.7-.55-.19-.25-2,.07-.21-.74-1-.61-1.4.66-1.41,0-1.9-.08-3.61-.36-2.57,1-2.93,0-5.32,0-.15-.17-1.12-.24-2.06l-.12-1.84c.68-2.66,0-4.57,1.93-6.33-.7-2.71,1.64-5.53,2.16-8.1s1.87-3.32,3.48-5.16c.35-.56.42-1,.81-1.31s0-1.39.34-1.95l.47.35.48-.74c.12-.18.28-.06.44.06.31.24.62.47,1,.23a21.73,21.73,0,0,0,1.71-2.24c.08-1,.15-1.91.2-2.87a2,2,0,0,1-.57-.52l-.06-.9c-.45-.39-1-.59-1.33-.85-1.46-.66-2.39-2.37-3.83-2.74-.43-.07-1.23,1.36-2.22,1.73-.29.07-.6-.51-1.05-.9-.4.9-1,.7-1.29.13l-.28.38-.59-.51c-1.65,2-4,4.14-4.19,6.71a8.33,8.33,0,0,0,.08,2.15c0,.32-.49.82-.62,1,.36.56,1,.7,1.43,1-1.12,1.5-3.23,5-1.23,5.43-.49,1.36.32,1.89,0,3.35-.37,1.94-.84,4.4-1.31,6.82-.13,1.35-.44,2.61-.68,3.89-.08.48-.15,1-.23,1.39-.75,4.83-1.59,9-2.11,13.2-.11,1-.22,2.1-.3,3.16s-.09,2.13-.1,3.22.07,2.2.15,3.33A30.13,30.13,0,0,0,48,96.7a29.38,29.38,0,0,0,2.39,7.59,13.45,13.45,0,0,0,2.47,3.4,14.94,14.94,0,0,0,3.26,2.37c1.12.63,2.23,1.13,3.3,1.6s2.16.94,3.25,1.36a29.59,29.59,0,0,0,6.74,1.8,17.29,17.29,0,0,0,6.87-.37,15.78,15.78,0,0,0,5.61-2.84,13.71,13.71,0,0,0,3.48-4.07,10.89,10.89,0,0,0,1.28-3.69A11.69,11.69,0,0,0,86,101.68Z"/></g><g class="cls-11"><path class="cls-15" d="M70.25,67.44c-1.2-1.65-4.56-1.54-6.06-2.23a5,5,0,0,1-1.34-.45c-.27-.17.36,0,1.34.45.43.1.94.19,1.55.29-.8-.71-1.55-1.41-2.09-2-.37,0-.75-.06-1.13-.11a31.23,31.23,0,0,1-4.91-.61,10.63,10.63,0,0,1-2.46-.59c2.39.2,4.78.31,7.18.37l-.2-.12c-1.27-.2-2.53-.43-3.79-.67a1.87,1.87,0,0,1-.64-.13l.64.13a13.61,13.61,0,0,0,1.7-.24c.37,0,.81.3,1.18.33a2.63,2.63,0,0,1,.91.58l.57.09a.65.65,0,0,1,.17-.08v0c-.58-1.45-5.28-3.4-6-3.13S55.67,60.73,55,60.88c-.23,0-.42-.29-.6,0a1.05,1.05,0,0,1-.2.47c-.46.09-.91-.62-1.27-.06-.26.23-.87-2.86-.93-2.29-.25,2.07-.07.57-.64.36-.07-.05-.32.79-.46.7-.45-.54-.62.16-1.18.37-.84.62-.94-.7-1.74.57a14.56,14.56,0,0,1-1.29.91c-.87-.25-1.51.73-2.08-.77-.91,1.19-1.84-.41-2.7-.27s-1.11-.93-1.73-1.91c-.19-.16-.36-.09-.45-.39s-.48.46-.67.3l.13-.56a2.62,2.62,0,0,1-.25-.22c-.07-.06,0-.24,0-.43a2.36,2.36,0,0,0,.09-1,4.08,4.08,0,0,0-.77-.86,11.74,11.74,0,0,0-1,.82,4.3,4.3,0,0,1-.19.71l-.32.38c-.14.55-.21,1.16-.31,1.53-.24,1.58-.85,3.06-1,4.52,0,.43.47.64.59,1.42a6.29,6.29,0,0,1-.32,1.29c.31,0,.24.65,0,1.15l.14.11-.19.74c.7.82,1.43,2.3,2.32,1.7a3.18,3.18,0,0,0,.74-.71c.11-.13.28.23.35.28A12.19,12.19,0,0,0,39.48,68c.5.62,1.66,1.75,1.84-.27.46.15.65-.79,1.14-.83a19.2,19.2,0,0,1,2.27-.15,4.29,4.29,0,0,1,1.29,0h.46c3.15,0,5.47,1.68,8.59.16a13,13,0,0,1,9-.61c2.72.66,5,1.7,5.77,1.84Z"/></g><g class="cls-11"><path class="cls-15" d="M76.52,88c-1.5-1.5-5.36-1-7.13-1.6A6.14,6.14,0,0,1,67.82,86c-.32-.15.41,0,1.57.35.5,0,1.1.1,1.8.14-1-.63-1.87-1.27-2.52-1.8-.42,0-.85,0-1.29,0a34.6,34.6,0,0,1-5.67-.32,12.55,12.55,0,0,1-2.83-.5c2.74.13,5.49.12,8.24,0a1.28,1.28,0,0,1-.24-.11c-1.46-.1-2.91-.25-4.36-.43a2.5,2.5,0,0,1-.75-.1l.75.1A16,16,0,0,0,64.45,83c.42,0,.94.26,1.37.26a3.22,3.22,0,0,1,1.06.51l.66.06a.69.69,0,0,1,.19-.1v0c-.36-.72-1.93-1.43-3.48-2s-3.1-.94-3.53-.77c-.68.21-1.28,1.46-2.06,1.63-.26.06-.49-.28-.69,0a.88.88,0,0,1-.21.47c-.53.1-1.06-.6-1.46,0-.29.24-1-2.85-1.1-2.28-.25,2.07-.07.56-.72.36-.08,0-.36.8-.52.7-.52-.53-.7.16-1.33.37-1,.62-1.09-.69-2,.56a15.61,15.61,0,0,1-1.47.89c-1-.27-1.74.69-2.38-.83-1.05,1.16-2.1-.48-3.08-.38s-1.26-1-1.94-2c-.21-.18-.4-.12-.49-.42s-.56.43-.77.25l.16-.55-.28-.24c-.07-.06,0-.24,0-.42a2.14,2.14,0,0,0,.13-1,4.72,4.72,0,0,0-.84-.92,11.77,11.77,0,0,0-1.16.74,5.19,5.19,0,0,1-.24.7l-.37.36c-.18.54-.29,1.14-.41,1.5-.33,1.57-1.08,3-1.29,4.45-.05.43.53.69.65,1.48a6.64,6.64,0,0,1-.42,1.26c.36.08.26.68,0,1.16l.15.13-.24.72c.79.89,1.61,2.43,2.66,1.89a3.35,3.35,0,0,0,.88-.66c.14-.12.32.25.41.31a10.51,10.51,0,0,0,.46-1.65c.58.66,1.92,1.86,2.15-.16.53.17.76-.76,1.33-.78.76-.07,1.71-.06,2.64-.06a6.15,6.15,0,0,1,1.49,0l.53,0c3.65.08,6.39,1.74,10,.12A18.63,18.63,0,0,1,69.35,87.5c3.19.44,5.85,1.2,6.79,1.25Z"/></g></g></g></svg>