<svg xmlns="http://www.w3.org/2000/svg" viewBox="0 0 328.33 328.33"><defs><style>.cls-1{fill:#fff;stroke:#000;stroke-linecap:round;stroke-miterlimit:10;stroke-width:4.33px;}.cls-2{opacity:0.8;}.cls-3{fill:#1d1d1d;}</style></defs><title>Asset 11logo</title><g id="Layer_2" data-name="Layer 2"><g id="Layer_1-2" data-name="Layer 1"><circle class="cls-1" cx="164.17" cy="164.17" r="162"/><g class="cls-2"><path class="cls-3" d="M237.21,234.28c-.54,1.69-.93,3.78-1.71,6.08a43,43,0,0,1-3,7.27,39.75,39.75,0,0,1-11.4,13c-1.16.9-2.43,1.65-3.65,2.43s-2.53,1.42-3.86,2a36.47,36.47,0,0,1-21,2.84A40.22,40.22,0,0,1,181.12,265c-1.1-.49-.36-.29,1.68.39a76.17,76.17,0,0,0,9.79,2.48,45.53,45.53,0,0,0,6.52.17,37.38,37.38,0,0,0,7.85-1.16,35.29,35.29,0,0,1-10.29-1.18,36.75,36.75,0,0,1-7.61-2.87,53.93,53.93,0,0,1-9.23-2c-3.36-1-6.64-2.24-9.86-3.58s-6.41-2.79-9.41-4.38a35.32,35.32,0,0,1-8.1-5.6,21.52,21.52,0,0,1-5.17-7.72,40,40,0,0,1-2.53-9.28,35.27,35.27,0,0,1-.17-9.93,55.75,55.75,0,0,0,1.95,14.1,24.83,24.83,0,0,0,6.57,11.15c3.18,3,7.46,5.27,12.06,7.34a107.41,107.41,0,0,0,14.08,5.33c-.5-.24-1-.51-1.45-.78a116.48,116.48,0,0,1-14.37-6.52c-4.56-2.44-8.49-5.19-10.84-8.53a12.31,12.31,0,0,1-2.18-3.71,21.75,21.75,0,0,0,2.18,3.71c2.34,2.81,5.9,4.48,10.25,6.42,2.61,1.37,5.73,3.5,8.59,4.69,2.31,1.06,4.22,2.65,6.37,3.94,1.46.54,2.94,1,4.43,1.46a10.12,10.12,0,0,1,1.43.1l0-.07c-.74-1.23-3.51-2.95-7.16-5.3-1.83-1.17-3.89-2.47-6.07-3.92s-4.57-3-6.56-4.47a29.49,29.49,0,0,1-4.85-4.36,14.64,14.64,0,0,1-2.36-3.76c-1.1-2.34-1.66-4.75-2.2-5.79-.79-1.66-2.18-3.35-3.46-5.42a17.57,17.57,0,0,1-2.75-7.24c-.21-1.86.7-3.5-.1-5-.53-.15-.91-.9-1.31-1.67-.2-4,1.73-7.89.31-11-.29-1.08,1.76-3,3.68-4.75s3.75-3.18,3-3.45c-5.67-2-1.54-.55-.7-5.46.18-.58-2.09-2.71-1.71-3.9,1.83-3.94-.06-5.31-.23-10.06a17.45,17.45,0,0,1,.68-7.62,10.33,10.33,0,0,0-.59-7.25,52.4,52.4,0,0,1-.66-5.72l-.34-5.14a97,97,0,0,0,1.4-9.77,14.75,14.75,0,0,1,1.14-4.11,12.1,12.1,0,0,1,2.84-3.79,13.45,13.45,0,0,1-.09-5.72,32.36,32.36,0,0,1,1.83-5.74c1.49-3.84,3.6-7.52,4.28-11.15a17.68,17.68,0,0,1,3.76-8c1.64-2.07,3.73-3.85,5.95-6.42,1-1.58,1.17-3,2.26-3.67s-.06-3.88.95-5.44l1.32,1,1.34-2.06c.35-.51.78-.18,1.22.15.87.67,1.75,1.32,2.85.64a60.49,60.49,0,0,0,4.79-6.25c.13-1.33.22-2.66.3-4s.19-2.67.24-4A6.49,6.49,0,0,1,185,68c-.05-.84-.1-1.69-.16-2.53-1.25-1.06-2.87-1.64-3.71-2.35-4.07-1.84-6.68-6.63-10.7-7.65-1.2-.21-3.42,3.8-6.2,4.83-.79.18-1.66-1.43-2.91-2.51-1.11,2.49-2.75,1.95-3.61.34l-.77,1.08-1.66-1.44c-2.35,2.79-5,5.7-7.37,8.77a19.93,19.93,0,0,0-4.32,10,24.18,24.18,0,0,0,.21,6c.1.9-1.37,2.29-1.71,2.87,1,1.55,2.66,2,4,2.92-3.14,4.2-9,13.86-3.45,15.16-1.36,3.8.88,5.28.06,9.36-.47,2.73-1.1,5.79-1.75,9s-1.25,6.64-1.9,10c-.38,3.76-1.23,7.27-1.91,10.85-.22,1.34-.43,2.65-.63,3.89-2.09,13.45-4.46,25.09-5.9,36.82-.31,2.94-.6,5.87-.83,8.83s-.26,6-.28,9,.19,6.13.42,9.29a81.82,81.82,0,0,0,1.37,9.91c1.43,6.94,3.11,14.27,6.68,21.18a37.27,37.27,0,0,0,6.87,9.49,42,42,0,0,0,9.11,6.62c3.13,1.74,6.22,3.14,9.21,4.47s6,2.61,9.07,3.78A82.51,82.51,0,0,0,191,271a48.39,48.39,0,0,0,19.17-1A44.06,44.06,0,0,0,225.87,262a38.21,38.21,0,0,0,9.72-11.36,30.47,30.47,0,0,0,3.58-10.29A34.36,34.36,0,0,0,237.21,234.28Z"/></g><g class="cls-2"><path class="cls-3" d="M193.3,138.72c-3.35-4.6-12.72-4.29-16.92-6.21a13.28,13.28,0,0,1-3.73-1.28c-.77-.45,1,.08,3.73,1.28,1.21.26,2.64.52,4.32.79-2.23-2-4.33-3.93-5.83-5.55-1,0-2.08-.16-3.14-.29-2.33-.26-4.61-.38-6.89-.6a38.93,38.93,0,0,1-6.83-1.13c-1.66-.46-5.26-.61-6.85-1.64,6.66.56,13.34.88,20,1a3.81,3.81,0,0,1-.56-.34q-2.65-.41-5.3-.89c-1.76-.31-3.52-.62-5.27-1a5.44,5.44,0,0,1-1.81-.36l1.81.36c1.55,0,3-.51,4.72-.68,1,.09,2.27.84,3.32.93.86.13,1.69,1,2.53,1.61l1.59.26a1.52,1.52,0,0,1,.48-.23l0,0c-.78-2.08-4.52-4.36-8.25-6.16s-7.51-3-8.58-2.57c-1.69.53-3.24,4-5.17,4.37-.64.13-1.18-.81-1.67,0a3,3,0,0,1-.56,1.31c-1.29.25-2.54-1.74-3.56-.17-.72.65-2.41-8-2.58-6.39-.7,5.77-.2,1.58-1.79,1-.18-.13-.9,2.21-1.29,1.94-1.26-1.49-1.72.45-3.28,1-2.35,1.74-2.64-1.94-4.87,1.6a40.09,40.09,0,0,1-3.59,2.54c-2.44-.7-4.23,2-5.81-2.16-2.55,3.34-5.13-1.14-7.54-.74s-3.1-2.59-4.83-5.32c-.53-.47-1-.26-1.24-1.09s-1.35,1.28-1.88.81l.36-1.54-.7-.62c-.18-.16-.06-.67.06-1.19a6.42,6.42,0,0,0,.25-2.89,11.57,11.57,0,0,0-2.14-2.4,29.25,29.25,0,0,0-2.82,2.29,18.16,18.16,0,0,1-.52,2l-.9,1.07c-.39,1.53-.6,3.24-.86,4.26-.68,4.42-2.4,8.56-2.78,12.62-.09,1.19,1.32,1.79,1.66,4a19,19,0,0,1-.91,3.59c.88.13.68,1.83.1,3.21l.38.32-.52,2c1.94,2.3,4,6.43,6.46,4.75a9.08,9.08,0,0,0,2.08-2c.31-.36.78.63,1,.79a33.24,33.24,0,0,0,1-4.65c1.42,1.75,4.65,4.9,5.15-.74,1.27.4,1.8-2.2,3.17-2.33a54.8,54.8,0,0,1,6.35-.41,11.31,11.31,0,0,1,3.58,0l1.28,0c4.43,0,8.21,1.19,12,1.83s7.64.74,12-1.39c8.68-4.31,17.6-3.54,25.24-1.71s13.86,4.75,16.1,5.15Z"/></g><g class="cls-2"><path class="cls-3" d="M210.81,196c-2.11-2.14-5.84-2.78-9.68-3.2-1.92-.21-3.86-.33-5.63-.49a26.85,26.85,0,0,1-4.61-.79,15.75,15.75,0,0,1-4.36-1c-.92-.4,1.13,0,4.36,1,1.4.17,3.07.3,5,.42-2.68-1.77-5.21-3.55-7-5-1.18.06-2.39,0-3.61,0s-2.67-.06-4-.05l-3.94-.09a45.9,45.9,0,0,1-7.88-.76c-1.92-.37-6.05-.41-7.9-1.39,7.64.37,15.31.33,23,0a6.42,6.42,0,0,1-.66-.3l-3.05-.23-3.06-.31c-2-.21-4-.4-6.06-.68a7,7,0,0,1-2.09-.27l2.09.27c1.77,0,3.45-.67,5.37-.94,1.19,0,2.62.71,3.83.72,1,.08,2,.9,3,1.44l1.84.14a1.74,1.74,0,0,1,.53-.26s0,0,0-.06c-1-2-5.38-4-9.71-5.59-1.09-.39-2.17-.73-3.2-1s-2-.59-2.9-.8a8.63,8.63,0,0,0-3.75-.31c-1.9.59-3.57,4.07-5.76,4.54-.73.16-1.37-.78-1.92,0a2.66,2.66,0,0,1-.6,1.33c-1.47.27-2.94-1.69-4.07-.1-.82.67-2.89-7.94-3.06-6.36-.7,5.78-.2,1.58-2,1-.22-.13-1,2.23-1.44,2-1.46-1.48-2,.45-3.73,1-2.68,1.72-3-1.95-5.55,1.55a44.89,44.89,0,0,1-4.11,2.48c-2.78-.74-4.85,1.93-6.64-2.32-1.45,1.65-2.93,1.28-4.37.58s-2.84-1.75-4.23-1.64c-2.79.25-3.5-2.76-5.39-5.6-.6-.51-1.13-.33-1.38-1.18s-1.56,1.2-2.15.7l.44-1.53-.78-.67c-.19-.17,0-.68.11-1.18a5.76,5.76,0,0,0,.36-2.88,13,13,0,0,0-2.34-2.56,31.86,31.86,0,0,0-3.24,2.08,14.62,14.62,0,0,1-.66,1.94l-1,1c-.49,1.51-.79,3.19-1.12,4.2-.92,4.38-3,8.38-3.61,12.42-.14,1.19,1.46,1.91,1.8,4.13,0,.67-.66,2-1.16,3.52,1,.21.73,1.89,0,3.23l.42.35c-.16.5-.66,2-.66,2,1.1,1.22,2.21,2.92,3.42,4.14s2.54,1.88,4,1.13a9.23,9.23,0,0,0,2.47-1.84c.37-.33.89.7,1.12.86a28.39,28.39,0,0,0,1.3-4.59c1.61,1.84,5.35,5.18,6-.45,1.48.48,2.13-2.11,3.72-2.18,2.11-.19,4.76-.17,7.36-.17a16,16,0,0,1,4.16.13l1.48,0c5.13.13,9.53,1.31,14,1.94a31.43,31.43,0,0,0,6.73.28,21.89,21.89,0,0,0,7.13-1.87c9.94-4.56,20.22-4.33,29.15-3.15s16.32,3.36,18.95,3.51Z"/></g></g></g></svg>