<svg xmlns="http://www.w3.org/2000/svg" viewBox="0 0 326 326"><defs><style>.cls-1{fill:#e9ffa0;stroke-width:1.79px;}.cls-1,.cls-5{stroke:#000;}.cls-1,.cls-4,.cls-5{stroke-miterlimit:10;}.cls-2{fill:#df0000;}.cls-3{fill:#8f002e;}.cls-4{stroke:#fff;stroke-width:5.37px;}.cls-5{fill:#fff;stroke-width:1.2px;}</style></defs><title>Asset 13logo</title><g id="Layer_2" data-name="Layer 2"><g id="Layer_1-2" data-name="Layer 1"><circle class="cls-1" cx="163" cy="163" r="162.1"/><path class="cls-2" d="M90.46,135.24v98.51H63.59v-123Z"/><path d="M144.19,133.45V232h26.87v-123Z"/><path class="cls-3" d="M171.06,102.1l-53.74,51.05L63.59,99.41V72.54l53.73,51.05q26.88-25.52,53.74-51Z"/><path class="cls-4" d="M209.76,208.69c-.28,24.32-.46,39.77-8.43,43.38-12.52,5.66-45.79-17.21-45.79-45.79s33.13-51.47,45.79-45.79C210.28,164.51,210.06,183.3,209.76,208.69Z"/><path class="cls-5" d="M215.28,208.32c.28,24.32.46,39.78,8.43,43.38,12.52,5.66,45.79-17.21,45.79-45.79s-33.13-51.46-45.79-45.79C214.76,164.14,215,182.93,215.28,208.32Z"/></g></g></svg>