<svg xmlns="http://www.w3.org/2000/svg" viewBox="0 0 332.86 329.83"><defs><style>.cls-1{opacity:0.8;}.cls-2{fill:#1d1d1d;}.cls-3{fill:#e9ffa0;}.cls-4,.cls-6,.cls-8,.cls-9{fill:#fff;}.cls-5{fill:none;}.cls-6{opacity:0.3;}.cls-7{opacity:0.85;}.cls-8{opacity:0.32;}.cls-9{opacity:0.35;}.cls-10{opacity:0.9;}.cls-11{fill:red;}</style></defs><title>Asset 8logo</title><g id="Layer_2" data-name="Layer 2"><g id="Layer_1-2" data-name="Layer 1"><circle cx="165.9" cy="165.32" r="162.1"/><g class="cls-1"><path class="cls-2" d="M323.77,165.32a141.59,141.59,0,0,0-2.1-31.86q-.53-2.51-1.07-5.12c-.18-.87-.37-1.75-.55-2.64l-.7-2.65c-.48-1.77-.93-3.59-1.45-5.41s-1.17-3.64-1.77-5.49A160.32,160.32,0,0,0,306.68,90a169.92,169.92,0,0,0-13.17-21,164.19,164.19,0,0,0-15.74-18.19l-4.11-4L269.49,43c-1.34-1.24-2.75-2.36-4.13-3.46s-2.69-2.21-4.05-3.22l-4-2.92c-.65-.47-1.28-1-1.93-1.4l-1.93-1.28-3.69-2.44c-1.19-.79-2.39-1.46-3.52-2.15-3.48-2.14-6.91-3.86-10.1-5.55-1.61-.82-3.21-1.52-4.74-2.25s-3-1.43-4.48-2c-2.93-1.19-5.63-2.39-8.23-3.25s-4.95-1.83-7.2-2.47c-1.89-.58-2.21-.69-1.21-.41s3.33.91,6.65,2.14a153.05,153.05,0,0,1,29.31,13.79,161.12,161.12,0,0,1,34.54,27.42,162.47,162.47,0,0,0-22.85-20.88,174.09,174.09,0,0,0-22-14A162.34,162.34,0,0,0,168,2.54,160.19,160.19,0,0,0,131.52,6a163.6,163.6,0,0,0-93,56.49c-1.11,1.38-2.21,2.77-3.31,4.15s-2.08,2.84-3.1,4.23c-2.09,2.76-3.86,5.63-5.63,8.3-.9,1.32-1.64,2.69-2.42,4s-1.51,2.54-2.21,3.74l-3.54,6.58a164.36,164.36,0,0,1,76-75.53A164.42,164.42,0,0,1,200.57,5.53c-1.9-.53-3.84-.84-5.73-1.25a164.77,164.77,0,0,0-28.47-2.8A169.73,169.73,0,0,0,137.81,3.7,160,160,0,0,0,110,10.82a165,165,0,0,0-26.12,12A187.43,187.43,0,0,0,67.2,33.56,169.62,169.62,0,0,1,83.89,22.77c3.66-2.19,7.47-4.06,11.25-6l5.8-2.65c1.94-.89,4-1.62,5.94-2.44a164.26,164.26,0,0,1,25.53-7.65,166.59,166.59,0,0,1,35.85-3,140,140,0,0,1,26.58,3.19l4.2.79,4.16,1c1.39.34,2.78.63,4.15,1l4.11,1.2c1.61.42,3.33.86,5.06,1.47l-.21-.1L214.74,9c-.64-.25-1.41-.51-2.28-.81-1.74-.58-3.9-1.37-6.48-2.11a147.64,147.64,0,0,0-19.79-4.28,163,163,0,0,0-86,10.56A158.2,158.2,0,0,0,75.07,25.4,156.22,156.22,0,0,0,56.69,39c-1.2,1.05-2.36,2-3.4,3l-2.86,2.7L48,46.93c-.7.7-1.29,1.36-1.81,1.91A140,140,0,0,0,28.8,71.35a203,203,0,0,0-14,26.51c-1.52,3.24-2.69,6.32-3.89,9.18-.62,1.42-1.06,2.84-1.53,4.22s-.88,2.72-1.25,4c0,.56-.6,3.25-1.22,5.93C3.11,134.9.76,149.12,1,160.09c0,1-.05,2.13-.15,3.45,0,.66-.12,1.36-.15,2.09s-.07,1.49-.11,2.26c-.1,1.57-.21,3.21-.32,4.88s-.11,3.36-.18,5S0,181,0,182.52s.09,2.87.12,4.06A19.12,19.12,0,0,0,.55,191c1.58,2.82,1.79,3.19,2,5.12.12,1,.14,2.33.55,4.55.18,1.11.42,2.44.73,4,.17.81.32,1.69.55,2.63s.53,2,.82,3.07c.14.54.42,1.36.78,2.35s.78,2.17,1.32,3.37c1,2.42,2.09,5.12,2.85,7.2,1.27,3.5,2.24,6.42,3.44,8.93s2.14,4.81,3.42,7c.62,1.11,1.24,2.25,1.9,3.43l1,1.82,1.16,1.89c.8,1.29,1.65,2.69,2.58,4.21s2.05,3.1,3.22,4.88c1.72,2.65,3.5,4.89,5,7s3.05,4,4.4,5.71l2,2.52,1.95,2.29c1.28,1.48,2.43,2.95,3.68,4.29,2.51,2.69,4.94,5.36,8,8.07.76.69,1.54,1.39,2.34,2.13S56,289,56.86,289.75c1.85,1.46,3.81,3.08,6.16,4.64a175.26,175.26,0,0,0,16.56,11c1.94,1.18,4,2.18,5.79,3.2.92.49,1.79,1,2.65,1.41l2.42,1.16,3.6,1.73a14.88,14.88,0,0,0,1.36.62,154.7,154.7,0,0,0,32.95,11.34,285.11,285.11,0,0,0,30,5,231.79,231.79,0,0,0,40.89-3.61c14.23-2.83,28.42-7.39,40.06-13.49l4.21-2.19c1.36-.68,2.61-1.48,3.86-2.17l3.61-2.05c1.15-.68,2.24-1.39,3.33-2.05l3.16-1.95c1-.63,2-1.33,3-2,1.92-1.32,3.86-2.48,5.64-3.83a161.51,161.51,0,0,0,22.29-18.59c2.3-2.39,4.16-4.62,5.87-6.52s3-3.7,4.32-5.13c.33-.36.7-.79,1.09-1.3s.78-1.11,1.21-1.74c.87-1.27,1.82-2.73,2.82-4.27s1.9-3.23,2.88-4.83L308,251.8c.46-.77.9-1.52,1.32-2.24l-.33,1.73,2.3-3.8c.87-1.42,1.73-2.85,2.23-3.84,1.06-2,1-1.37.9-.78-.17,1.16-.34,2.34,1.71-1a156.5,156.5,0,0,0,11.58-26.34,162.74,162.74,0,0,0,5.11-28.23,8,8,0,0,1-.43-2.57l.15-2.08c0-.7,0-1.4.06-2.09l.1-4.17c-.45-1.69-1.12-1.17-1.42-2.29-.8,0-1.55-3-2.27-5.46s-1.47-4.65-2.23-3.3a18.8,18.8,0,0,0-.37,3.14c-.06.86-.12,1.84-.2,2.92s-.12,2.25-.28,3.45c-.3,2.42-.55,5-.92,7.43s-.88,4.61-1.29,6.29-.49-2.21-.87-3.82c-.29,2.21-.51,3.9-.78,5.12a13.15,13.15,0,0,1-.7,2.34c-.36.74-.5-.09-.45-1.92-.41,2-.82,4.08-.82,4.08l-.4-2.17A159,159,0,0,1,309,224.93a213.89,213.89,0,0,1-16.58,29.59c-.65,1-1.4,2.08-2.19,3.3l-2.66,3.75c-1.77,2.62-3.82,5.11-5.38,7.17a38.45,38.45,0,0,1-3.68,3.9c-1.44,1.39-2.82,2.75-3.61,3.42-2.25,2.87-1.44,3-2.17,4.47-3.07,2.64-7.12,5.93-11.59,9.17-.56.41-1.1.84-1.68,1.24l-1.74,1.18-3.49,2.37c-2.34,1.56-4.74,3-7,4.4s-4.47,2.56-6.42,3.73-3.77,2.05-5.23,2.91l-1.93,1.17c-.57.33-1,.62-1.42.88-.73.52-1,.89-.81,1.07-1.49.66-2.83,1.27-4,1.85L223.93,312c-2.11.91-3.9,1.78-5.77,2.49s-3.71,1.56-6,2.35L208.52,318c-1.35.4-2.8.91-4.48,1.27a153.06,153.06,0,0,1-29.81,4.64,158.07,158.07,0,0,1-33.57-1.64,153.43,153.43,0,0,1-35-9.74l-1.57-.61-1.53-.69-3-1.35c-1-.45-2-.87-2.94-1.34l-2.82-1.44a156.55,156.55,0,0,1-49.64-39.64,158.19,158.19,0,0,1-28.55-51.5,162.24,162.24,0,0,1-8-57.85,164.79,164.79,0,0,1,14.32-60.6,155.94,155.94,0,0,1,39.9-53.64A159,159,0,0,1,89.38,24.49a156.56,156.56,0,0,1,30.87-12.83,159.17,159.17,0,0,1,64.3-5.3,157.12,157.12,0,0,1,57.21,18.57,161.18,161.18,0,0,1,41.85,33.74A168.21,168.21,0,0,1,298,77.79c1,1.62,2,3.21,3,4.79s1.8,3.21,2.68,4.77l1.3,2.35c.41.78.78,1.58,1.17,2.36l2.28,4.64a159.63,159.63,0,0,1,11,33.31,155.52,155.52,0,0,1,3.12,22.7C323.15,156.88,323.41,161.09,323.77,165.32Z"/></g><line class="cls-3" x1="255.47" y1="100.11" x2="255.47" y2="201.11"/><g class="cls-1"><path class="cls-4" d="M251.52,201.11c1.69-2.86,1.91-12.59,2.64-16.83.16-1.63.32-2.88.51-3.81s0,1-.51,3.81c-.12,1.24-.24,2.71-.38,4.43.73-2.15,1.45-4.21,2-5.69,0-1.08.1-2.18.16-3.3.27-4.9.32-9.65.76-14.51.18-1.76.23-5.6.59-7.31l-.54,21.4a5.43,5.43,0,0,1,.13-.58l.77-11.25a16.26,16.26,0,0,1,.14-1.94l-.14,1.94c0,1.67.15,3.29.19,5.1-.05,1.12-.32,2.4-.36,3.53a15.55,15.55,0,0,1-.6,2.62l-.12,1.68a4.34,4.34,0,0,1,.07.52l0,0c1.44-1.39,3.46-15.53,3.19-17.88-.18-1.87-1.36-3.57-1.49-5.65,0-.7.27-1.29,0-1.82-.18-.05-.32-.32-.45-.59-.1-1.38.58-2.77,0-3.84-.23-.74,2.71-2.83,2.16-3-2-.58-.54-.16-.36-1.92,0-.21-.77-.9-.68-1.33.5-1.44-.18-1.87-.4-3.52-.64-2.46.63-3-.64-5.18-.13-.26-.94-3.68-.94-3.68.17-2.67-.82-4.32.58-6.4-1.22-2.4.22-5.61,0-8.17s.77-3.63,1.63-5.87c.13-.64,0-1.12.31-1.49s-.5-1.28-.36-1.92l.54.16c0-.22.13-.64.18-.86s.22-.16.41-.1c.36.1.72.21,1-.16a20,20,0,0,0,.71-2.74c-.27-.93-.58-1.84-.92-2.73a2.51,2.51,0,0,1-.7-.24c-.13-.27-.27-.54-.4-.8-.54-.16-1.13-.11-1.49-.22-1.54,0-3-1.11-4.42-.85-.41.11-.54,1.66-1.26,2.35-.23.16-.72-.21-1.27-.37,0,.91-.58,1-1.08.59,0,.21-.09.42-.09.42l-.72-.21c-.68,2.3-2,4.86-1.31,7.1a8.84,8.84,0,0,0,.77,1.81c.14.27-.18.86-.22,1.07a4.46,4.46,0,0,0,1.62.48c-.54,1.65-1.49,5.23.45,5.12-.09,1.33.82,1.6.91,3,.15,1.84.26,4.17.34,6.47a35,35,0,0,1,.09,3.68c0,.46,0,.9,0,1.32.19,9.12-1.32,15.86.15,24.76,3,17.95-1.5,37.71-1.93,42.13Z"/></g><line class="cls-3" x1="74.47" y1="100.11" x2="74.47" y2="201.11"/><g class="cls-1"><path class="cls-4" d="M70.24,201.11c1.81-2.86,2-12.59,2.83-16.83a34.78,34.78,0,0,1,.55-3.81c.18-.79,0,1-.55,3.81-.13,1.24-.26,2.71-.41,4.43.78-2.15,1.55-4.21,2.19-5.69,0-1.08.1-2.18.17-3.3.29-4.9.33-9.65.81-14.51.19-1.76.24-5.6.63-7.31l-.58,21.4a5.45,5.45,0,0,1,.14-.58l.83-11.25a16.26,16.26,0,0,1,.14-1.94l-.14,1.94c0,1.67.16,3.29.19,5.1,0,1.12-.33,2.4-.38,3.53a14.73,14.73,0,0,1-.64,2.62l-.13,1.68a4.34,4.34,0,0,1,.07.52l0,0c1.54-1.39,3.7-15.53,3.41-17.88-.19-1.87-1.45-3.57-1.59-5.65,0-.7.29-1.29,0-1.82-.19-.05-.34-.32-.49-.59-.09-1.38.63-2.77.05-3.84-.24-.74,2.9-2.83,2.32-3-2.13-.58-.58-.16-.39-1.92,0-.21-.82-.9-.73-1.33.53-1.44-.19-1.87-.43-3.52-.68-2.46.67-3-.68-5.18-.15-.26-1-3.68-1-3.68.2-2.67-.87-4.32.63-6.4-1.31-2.4.24-5.61,0-8.17s.82-3.63,1.74-5.87c.14-.64,0-1.12.34-1.49s-.54-1.28-.39-1.92l.58.16.19-.86c0-.21.24-.16.44-.1.38.1.77.21,1.06-.16a17.69,17.69,0,0,0,.76-2.74c-.29-.93-.62-1.84-1-2.73a2.87,2.87,0,0,1-.75-.24l-.43-.8c-.58-.16-1.21-.11-1.6-.22-1.64,0-3.23-1.11-4.73-.85-.44.11-.58,1.66-1.35,2.35-.24.16-.77-.21-1.35-.37,0,.91-.63,1-1.16.59l-.1.42-.77-.21c-.72,2.3-2.12,4.86-1.4,7.1A8.22,8.22,0,0,0,68,111.8c.14.27-.2.86-.25,1.07a5.07,5.07,0,0,0,1.74.48c-.58,1.65-1.59,5.23.49,5.12-.1,1.33.87,1.6,1,3,.17,1.84.29,4.17.37,6.47a32.49,32.49,0,0,1,.1,3.68c0,.46,0,.9,0,1.32.2,9.12-1.42,15.86.16,24.76,3.18,17.95-1.6,37.71-2.07,42.13Z"/></g><path class="cls-4" d="M88.47,249.61c3.65,1.93,7.13,3.79,10.59,5.53.88.42,1.74.85,2.59,1.29l2.6,1.21c1.69.85,3.45,1.56,5.14,2.34a154.18,154.18,0,0,0,20.43,7.23A119.57,119.57,0,0,0,150.06,271a113.67,113.67,0,0,0,20.12.11A111,111,0,0,0,190,267.38,137.5,137.5,0,0,0,209.58,260c3.26-1.48,6.49-3.13,9.72-4.88s6.48-3.57,9.69-5.55c6.46-3.93,12.86-8.22,19.48-12.95a58.07,58.07,0,0,1-4.78,11.28,88.13,88.13,0,0,1-6.57,10.39,95.37,95.37,0,0,1-17.24,18,93.19,93.19,0,0,1-22,13.13,90.7,90.7,0,0,1-25.36,6.46,89,89,0,0,1-26.17-1.3,86,86,0,0,1-24.28-9,84,84,0,0,1-20-15.41,79.66,79.66,0,0,1-7.77-9.69A56.92,56.92,0,0,1,88.47,249.61Z"/><rect class="cls-5" x="18.73" y="194.35" width="62.27" height="77.91" transform="translate(-185.88 269.89) rotate(-86.75)"/><g class="cls-1"><path class="cls-4" d="M57.83,202.57a3.74,3.74,0,0,0-1,1.47c.14.46.67.15.74,0,1.35,1.1,1.42,2.86,3.09,3.53a2.35,2.35,0,0,0-.65.47c.56,1.17.37,2.46.7,3.62-1.07.79,0,1.87-.84,2.73l-.55-.2a10.87,10.87,0,0,0-.75,2.11c.81.78.81,1.81.86,2.94a13.53,13.53,0,0,0-.84,1.77.58.58,0,0,0-.25-.64c-.79,0-.62,1.05-1.43,1.23-.41-.71,0-1.93-1.25-2-.1.9.62,2.19.13,2.73a2.2,2.2,0,0,0-.38-1.21c-1.1.39-.45,1.84-.5,2.75s1,2,.17,3a31.86,31.86,0,0,1-3.86-8.9,25.63,25.63,0,0,1-.79-10.09c.74-3.14,4.15-3.12,6-5C56.66,202.16,57.36,202.88,57.83,202.57Z"/><path class="cls-6" d="M52.53,208c-.08.28-.46,0-.22-.18Z"/><path class="cls-6" d="M51.9,209.1c-.53.31-.49-.48-.59-.72l.32.42.54-.59C52.27,208.55,51.63,208.74,51.9,209.1Z"/><path class="cls-6" d="M52.42,208.79l-.17,0C52.31,208.78,52.32,208.61,52.42,208.79Z"/><path class="cls-6" d="M52.37,209.75l.22.07Z"/><path class="cls-6" d="M52.5,210.44c.11.06-.06.16-.13.27C52.44,210.6,52.33,210.43,52.5,210.44Z"/><path class="cls-6" d="M51.86,210.8a.22.22,0,0,1-.21-.35C51.82,210.51,51.87,210.57,51.86,210.8Z"/><polygon class="cls-6" points="50.78 210.85 50.68 210.5 50.8 210.51 50.78 210.85"/><path class="cls-6" d="M52.79,213.29l-.07.28Z"/><path class="cls-6" d="M52.37,213.78c-.08.45.15.35-.27.78.52-.26-.29-.87.28-.89C52.37,213.72,52.43,213.78,52.37,213.78Z"/><polygon class="cls-6" points="53.08 214.22 53.1 213.93 53.14 214.16 53.08 214.22"/><path class="cls-6" d="M52.53,214l.33.19Z"/><path class="cls-6" d="M50.72,213.91l.33.14Z"/><path class="cls-4" d="M89.59,221c-.21-.35-.18-.92-.51-1C89.71,219.87,89.84,220.56,89.59,221Z"/><path class="cls-4" d="M89,221.19c.18-.16.19-.33.4,0-.48.37-1.24-.24-.81-.73C88.81,220.78,88.45,221.16,89,221.19Z"/><path class="cls-4" d="M68.06,221.37c.57,2-.69,3.19-.75,5.18-.84-.17-1.13-1.15-2-.23-.3.21.2.35.08.57-.32-.47-.92.23-1.38.32,0,.46.22,1,0,1.37-.62,0-1-1.82-1.61-.55l.11,1c-.9-.16,0-1.81-1.07-2l-.74,1c-.09-.4.58-1.22-.21-1.32s-.21.73-.84.81c-.47-.77.92-2.28-.5-2.3-.5-.09-.17,1.12-.58.36,1-1-.41-1.84.67-2.8,1.23-.67.17-2.14,1.83-2.33.17-.9,1.33-.5,1.8-.75,1.43,1.89,2.2-.62,3.89.44C67.5,220.2,67.74,221,68.06,221.37Z"/><rect class="cls-6" x="61.46" y="222" width="0.4" height="0.11" transform="translate(-163.53 271.04) rotate(-86.75)"/><path class="cls-6" d="M60.21,222.57c-.17,0-.05-.12,0-.18S60.22,222.51,60.21,222.57Z"/><polygon class="cls-6" points="60.82 222.88 60.89 222.66 61.1 222.9 60.82 222.88"/><path class="cls-6" d="M61.14,223.19c-.12.16-.17,0-.28-.08C61,223.12,61.09,223.07,61.14,223.19Z"/><path class="cls-6" d="M60.64,224c-.49.65-.31-.42-.93-.51.21.19.52-.14.42-.37A1.43,1.43,0,0,0,60.64,224Z"/><path class="cls-6" d="M66.39,223.82c-.16-.29-.28-.07-.45-.08C66.18,223.47,66.29,223.48,66.39,223.82Z"/><path class="cls-6" d="M59.78,223.17a.32.32,0,0,1-.07.22C59.72,223.28,59.67,223.1,59.78,223.17Z"/><polygon class="cls-6" points="59.25 223.53 59.44 223.26 59.36 223.54 59.25 223.53"/><path class="cls-6" d="M61.33,223.88c0-.12-.5-.14-.26-.36C61.11,223.7,61.23,223.59,61.33,223.88Z"/><path class="cls-6" d="M65.92,224l.1.23Z"/><polygon class="cls-6" points="61.02 224.37 61.04 224.03 61.14 224.21 61.02 224.37"/><path class="cls-6" d="M66,224.94c-.36-.59-.14.5-.44-.14C65.78,224.47,65.93,224.82,66,224.94Z"/><path class="cls-6" d="M60.33,224.56c.15.29.32.42.6.37-.44-.19-1,0-1.06-.34C60,224.66,60,224.66,60.33,224.56Z"/><polygon class="cls-6" points="59.23 224.84 59.42 224.62 59.35 224.84 59.23 224.84"/><rect class="cls-6" x="64.95" y="225.55" width="0.68" height="0.06" transform="translate(-163.62 278) rotate(-86.75)"/><path class="cls-6" d="M60.88,225.9c-.34,0-.23-.07-.56-.21l.2.53-.06-.06-.13.33c-.24-.64.17-1,.58-1.27C60.67,225.54,61,225.79,60.88,225.9Z"/><path class="cls-6" d="M61.57,225.76c-.12.06-.23-.06-.28-.12-.35.09,0,.4,0,.39-.46,0,.07-.28-.2-.46C61.23,225.63,61.7,225.43,61.57,225.76Z"/><path class="cls-6" d="M62.34,226.15c-.1-.35-.52,0-.32-.42C62.17,226,62.52,226,62.34,226.15Z"/><path class="cls-6" d="M61.51,226.78c.09-.56-.73-.21-.13-.69C61.54,226.22,61.91,226.64,61.51,226.78Z"/><polygon class="cls-6" points="62.01 226.93 61.97 226.64 62.02 226.7 62.01 226.93"/><rect class="cls-6" x="61.11" y="226.83" width="0.28" height="0.06" transform="translate(-168.71 275.16) rotate(-86.75)"/><path class="cls-4" d="M88,228.79a1.13,1.13,0,0,1-.39,1c0-.29.53-.31.21-.67l-.18.16c-.54-.43.49-.66-.3-.76-.39-.08-.41.32-.6.54,0,.39.27,1.26.64.83l-.53.25c-.43-.31-.28-1-.09-1.37C87.08,228.29,87.77,228.05,88,228.79Z"/><path class="cls-4" d="M56.15,230.11l0,.63Z"/><path class="cls-4" d="M55.49,230.76l.22,1.09Z"/><polygon class="cls-4" points="56.25 232.5 56.37 232.4 56.53 232.57 56.25 232.5"/><path class="cls-4" d="M55.76,233.1c.16.12-.08.28-.08.39C55.68,233.38,55.64,233.09,55.76,233.1Z"/><path class="cls-4" d="M66.92,235.43c.12,1,.8,1.92,0,2.79,0,1.7-.89,3.63-2.39,4.17-.48,2.36,1.72,4.58.91,6.92-1.08,0-1.14,1.07-2.06,1.36a1.91,1.91,0,0,1-.47,1.22c-.37-.47.67-1.83-.34-2l-.15,1.58c-.15-.24,0-.85-.09-1.26-.77-.44-1.34.55-1.38,1.17-.54-.37.06-1,.09-1.52-.66-.38-.38.71-1,.56a3.29,3.29,0,0,1,.57,3.84c-.65.53-1,1.87-1.91,1.76-.5-.25-.44-1.22-1.15-.86a2.78,2.78,0,0,0-1.14,2.15c-.31.49-.67-.09-.89-.22-.1-.35-.24-.87-.57-1a3.88,3.88,0,0,1-.85,3c-.56,0-1.19-.92-1.33-1.56a2.18,2.18,0,0,1,.61-1.72c.48-.54,1,.17,1.47.14a3.22,3.22,0,0,1,.51-5c.82-.46,1.29.13,2,.52A2.26,2.26,0,0,1,59.17,250l.66.27c.16-1.81-.35-3.71.59-5.3.49-.71.73-1.83,1.8-1.83.48-.43,1.31.07,1.79.44.15-.56.37-1.4-.29-1.77-.12.1.17,1-.34.94A3.72,3.72,0,0,1,62.8,240c-.5-.14-.48.49-.93.41.44-1.74-.81-3.74.8-5.12-.07-.75,1-1.08,1.33-1.46A2.81,2.81,0,0,1,66.92,235.43Z"/><rect class="cls-4" x="55.63" y="233.81" width="0.23" height="0.06" transform="translate(-180.87 276.25) rotate(-86.75)"/><path class="cls-6" d="M63.9,234.64c-.28,0-.1-.23,0-.34C63.69,234.4,63.84,234.75,63.9,234.64Z"/><path class="cls-6" d="M63.6,234.85c-.33-.13-.07.33-.14.5.18-.22.39.25.57-.08-.12.28.1.29-.21.73-.22,0-.94-.4-1.09.27.61-.81.38-.71.72-1.66Z"/><path class="cls-4" d="M56.48,234.33l-.18.22Z"/><path class="cls-6" d="M65.91,235.21c0,.39.35-.1.21.29l-.26-.35S66.14,235.11,65.91,235.21Z"/><path class="cls-6" d="M65.45,235.41h0Z"/><path class="cls-4" d="M63.69,235.42c-.18.05-.07.22-.13.28l-.1-.29Z"/><path class="cls-6" d="M66.43,237.11l-.65-.55h.11c0-.46-.32-.36-.07-.8A9.61,9.61,0,0,1,66.43,237.11Z"/><polygon class="cls-6" points="64.17 235.9 64.18 235.73 64.41 235.75 64.17 235.9"/><path class="cls-6" d="M65.52,236.15c.15.23,0,.73-.34.89-.39,0-1.17-.41-1.1.39l0-.4-.12.11c.1-.73-.56,0-.74.07.36-.26-.3-.64.15-.61v.05c0-.17.56.15.58-.25-.23,1.07.35-.26.65.61-.1-.35.46-.15.26-.56.28,0,.28.93.6.26-.55-.31.21-.55-.34-.92Z"/><path class="cls-6" d="M63.69,236.38c-.25.28-.44-.25-.55-.31C63.24,236.3,63.64,236.16,63.69,236.38Z"/><path class="cls-6" d="M64.49,236.32c-.12,0-.18,0-.35,0A.7.7,0,0,1,64.49,236.32Z"/><path class="cls-6" d="M66.24,236.42l.27.13Z"/><path class="cls-6" d="M62.4,237l-.12.17.08-.34S62.41,236.94,62.4,237Z"/><path class="cls-6" d="M63,237c-.34,0-.19.44-.36.32S62.82,236.73,63,237Z"/><path class="cls-6" d="M66.17,237.55c.39.25-.37-.31-.46.2-.21-.35.14-.56.43-.6Z"/><path class="cls-6" d="M65.43,237.68l-.17,0c.06-.11.13-.27.24-.27S65.54,237.68,65.43,237.68Z"/><path class="cls-6" d="M64.59,237.51c-.07.17,0,.57-.17.9.19-.33-.36-.59-.11-.91l0,.28Z"/><path class="cls-6" d="M63.55,237.74c-.41.2.19.69-.37.66-.32-.36-.85-.1-.94-.51C63.12,238.45,62.56,237.23,63.55,237.74Z"/><path class="cls-4" d="M63.2,238c-.28-.07-.22-.24,0-.28C63.15,237.83,63.31,238,63.2,238Z"/><polygon class="cls-6" points="64.78 238.09 64.97 237.82 64.9 238.04 64.78 238.09"/><polygon class="cls-6" points="63.71 238.03 63.89 237.81 64 237.94 63.71 238.03"/><polygon class="cls-6" points="65.56 238.42 65.62 238.25 65.67 238.37 65.56 238.42"/><path class="cls-6" d="M65,238.67c-.23-.07,0-.45.13-.33Z"/><path class="cls-6" d="M66.39,238.81c-.18.05-.4-.08-.52.08C66,238.56,66.12,238.45,66.39,238.81Z"/><path class="cls-6" d="M62.44,239.32s.18-.1.13-.22c-.19.28.4.93-.16.79,0-.29.09-.51-.18-.81Z"/><rect class="cls-6" x="63.38" y="239.24" width="0.23" height="0.06" transform="matrix(0.06, -1, 1, 0.06, -178.99, 289.12)"/><path class="cls-4" d="M60.24,240.22l.08.46a1.58,1.58,0,0,0-.4-.88c-.64.25-.06.06-.67-.26-.71.53-.46,1.11-.55,1.73.62,0,.34.92.93.62.13-.34.49-.66.57-1a2.51,2.51,0,0,1-.75,1.2,1.47,1.47,0,0,1-.83-1.35,1.25,1.25,0,0,1,.75-1.26C59.77,239.45,60.14,239.87,60.24,240.22Z"/><path class="cls-6" d="M64.28,240c0,.29-.06-.05-.11-.11A.12.12,0,0,1,64.28,240Z"/><path class="cls-6" d="M65.64,240l0,.23Z"/><path class="cls-4" d="M85.38,244.14c1.15.69.71,2.6.81,3.74a8.41,8.41,0,0,1-2,4.71c-1.51.76-2.64,2.63-4.49,3.15,0,.68-.5.93-.37,1.57-.46.2-.5.88-1,.5-1-1.19,1-1.81.4-3S77,252.24,77.28,251a5.2,5.2,0,0,0,1.46-1.85,13.79,13.79,0,0,0-.16-3.19c.07-1.24,1.67-1.43,2.18-2.26.76-.41,1.54-.14,2.25-.66C84,243.38,84.87,243.21,85.38,244.14Z"/><path class="cls-4" d="M24.6,241.15a2.67,2.67,0,0,1-.85,1.88c-.55-.26-1.1-.57-1.06-1.25.19-.44.28-1,.75-1.26A.91.91,0,0,1,24.6,241.15Z"/><path class="cls-6" d="M23.19,241l-.14.44Z"/><path class="cls-6" d="M24.27,241.81l-.05-.11a2.4,2.4,0,0,1-.61.87c-.34,0-.3-.76-.61-.32-.21-.29.44-.71.57-1.1.18,0,.39.19.51.08l0-.23C24.44,241,24.18,241.58,24.27,241.81Z"/><polygon class="cls-6" points="63.01 245.37 63.25 245.1 63.52 245.29 63.01 245.37"/><path class="cls-6" d="M62.94,245.54l-.14.5Z"/><path class="cls-6" d="M64.38,247.15c-.22-.12-.09-.29,0-.45Z"/><path class="cls-6" d="M62.06,247.13c-.06-.11-.42.26-.4-.08Z"/><path class="cls-6" d="M63.74,247.46a.15.15,0,0,0,.28.07c0,.51-.67-.15-.59.42.19-.39.72.27.61.32-.41,0-1.18-.3-.93.34,0,.11.21-.78-.31-.53v.17c-.2-.46.13-.27.53-.36l-.22-.13C63.34,247.55,63.51,247.61,63.74,247.46Z"/><path class="cls-6" d="M62.35,247.89c-.22-.07,0-.34.14-.45Z"/><path class="cls-6" d="M61.94,248.09a.3.3,0,0,1-.45,0C61.61,248.07,61.91,247.75,61.94,248.09Z"/><polygon class="cls-6" points="61.41 248.52 61.36 248.4 61.64 248.47 61.41 248.52"/><polygon class="cls-6" points="63.43 248.86 63.62 248.64 63.66 248.93 63.43 248.86"/><path class="cls-6" d="M62.3,248.85c0,.11-.12.11-.18.22l.31-.44C62.47,248.8,62.52,249,62.3,248.85Z"/><rect class="cls-6" x="64.12" y="248.79" width="0.23" height="0.11" transform="translate(-187.85 298.88) rotate(-86.75)"/><path class="cls-6" d="M62.8,248.94l.28.07Z"/><path class="cls-6" d="M61.55,249.09l0,.17Z"/><path class="cls-6" d="M62,249.57l0,.23c-.23,0-.32-.36-.55-.2C61.72,249,61.79,249.79,62,249.57Z"/><path class="cls-6" d="M62.77,249.61l.15.24Z"/><polygon class="cls-6" points="58.46 252.49 58.7 252.34 58.63 252.5 58.46 252.49"/><rect class="cls-6" x="55.1" y="252.65" width="0.28" height="0.06" transform="translate(-200.16 293.53) rotate(-86.75)"/><polygon class="cls-6" points="56.24 253.61 56.2 253.27 56.36 253.51 56.24 253.61"/><path class="cls-4" d="M47.34,253.39c1.43.94,1.71,2.88,1.51,4.46A13.37,13.37,0,0,1,46.91,261c-.65.53-1.3,0-1.95.4-.38-.3-.39-1.1-1.07-1.19-.42-1.5-1.57-3.27-.51-4.91C43.65,253.47,45.73,252.79,47.34,253.39Z"/><path class="cls-4" d="M13.87,257.06a6,6,0,0,1-.45,4,3,3,0,0,1-2.62,1.21c-.12-.85-1.29-1.2-1.47-2.07a4.26,4.26,0,0,1,.56-2.86c.89-.74,2-2.21,3.36-1.34Z"/><polygon class="cls-6" points="45.84 259.78 45.8 259.55 45.86 259.55 45.84 259.78"/><path class="cls-6" d="M11.65,258.35c-.18.16-.58.14-.37.43C11.08,258.32,11.2,258.27,11.65,258.35Z"/><path class="cls-6" d="M11.46,259.59l.22.24Z"/></g><rect class="cls-5" x="121.54" y="106.29" width="23.05" height="12.1" transform="translate(-39.05 85.85) rotate(-31.42)"/><g class="cls-7"><path class="cls-4" d="M121.89,116.16c-.12,0-.23-.21-.09-.29-.06.22.12.13.22.11l0,0c.09,0,.13.15.18.1-.13,0-.21.23,0,.28s.13,0,.21-.09l-.08,0s.24,0,.23.1c.35,0,.34-.5.57-.67-.15.17,0,.31-.21.48a1.15,1.15,0,0,1-.78.29C122,116.32,121.67,116.2,121.89,116.16Z"/><path class="cls-4" d="M122.17,115.41c.11-.09.36-.12.43,0-.25-.25-.29.34-.51.12a3.22,3.22,0,0,1-.32.32C122,115.71,121.9,115.39,122.17,115.41Z"/><path class="cls-4" d="M122.69,115.38a.19.19,0,0,1,.15-.09l-.15.16S122.81,115.4,122.69,115.38Z"/><path class="cls-4" d="M123,115.46c0,.13-.09.06-.2.09Z"/><path class="cls-4" d="M122.44,113.2a1,1,0,0,1,.6-.53l.41,0c0,.13,0,.24.15.13a.2.2,0,0,0,0-.25c.09,0,.12-.18.24-.11a.81.81,0,0,1-.11-.87h.19c-.13-.46.34-.41.47-.77.24-.71.55,0,.81-.7,0,.16-.06.42.19.35s0-.35.25-.45c.2.17-.32.72.24.6.17-.12.4,0,.59-.09.31-.45,1-.41,1.17-1-.11.26.18.23.29.33.32-.05.37-.35.57-.5.11.11.23,0,.29.16a5,5,0,0,0-1,.81c.08.17,0,.42.27.41.56,0,1.29.2,1.67,0-.81.42-1.5,1-2.28,1.46.15.45.47-.25.62,0-.23.2,0,.4,0,.64l-.73.47c0,.13,0,.16.07.25-.18.36-.76,0-.87.49-.32.11-.56-.12-.85.06,0,.27.25-.07.42,0,0,.14-.31.07-.3.27.25.12.64-.12.73.23-.24,0-.08.27-.28.33,0,.19.21.1.29,0,0,.19-.28.11-.33.25s.33-.08.22.15a.41.41,0,0,0-.3.16c.06.14.2,0,.27.07-.6.18-1.1.76-1.78.59a1,1,0,0,1-.68-.48c0-.22-.16-.65.13-.79a1,1,0,0,1,.39-.51c-.12,0-.33-.07-.35-.25.33-.2.68.17,1,0-.19-.11-.42-.35-.64-.26-.22-.15-.16-.57-.49-.49,0,0,0-.11.06-.16s-.18,0-.32-.1a.82.82,0,0,1-.93.66A.44.44,0,0,1,122.44,113.2Z"/><path class="cls-6" d="M122.52,113.15c.2,0,.15-.13.26-.26V113c.21,0,.06-.32.32-.17,0,0-.12,0,0,.13s0-.13.12-.08a.76.76,0,0,0-.11.24c.11.07.14.18.24.31l0-.16c0,.12.1.13.17.21-.13.12-.28.09-.45.22.17-.13-.12,0-.14-.17.06.13-.09.2-.14.13l0,0-.12-.1h0c-.25-.14.18,0,0-.18l-.16.09Z"/><path class="cls-6" d="M122.85,113.32c0-.06-.06,0-.09-.08s0,0,0-.07c.2,0,0,.17.15.22a.14.14,0,0,1-.15.09C122.75,113.36,122.8,113.42,122.85,113.32Z"/><path class="cls-6" d="M123.06,113.43s-.17.06-.12.11l.06-.18Z"/><path class="cls-6" d="M124.65,115.82c.22,0,.25.07.54.06,0-.09-.15-.11,0-.18l0,.07c.29.16.16-.36.45-.23l0,0c.16-.1.15,0,.33-.16-.13.1-.07.17,0,.26-.18,0-.24.29-.44.14l.06-.11c-.2,0-.34.36-.44.34l0-.06c-.16,0-.46-.1-.44.08C124.7,115.93,124.72,115.84,124.65,115.82Z"/><polygon class="cls-6" points="123.44 113.34 123.36 113.3 123.44 113.23 123.44 113.34"/><path class="cls-6" d="M124.91,115.6l0,0c.18-.19,0,.18.22.16C125,115.71,124.9,115.75,124.91,115.6Z"/><polygon class="cls-6" points="125.08 115.64 125.16 115.67 125.08 115.68 125.08 115.64"/><polygon class="cls-6" points="125.47 115.83 125.4 115.92 125.4 115.82 125.47 115.83"/><polygon class="cls-6" points="125.46 115.44 125.4 115.51 125.42 115.47 125.46 115.44"/><polygon class="cls-6" points="125.48 115.33 125.35 115.43 125.4 115.38 125.48 115.33"/><path class="cls-6" d="M125.67,115.61l0-.08Z"/><polygon class="cls-6" points="125.52 115.3 125.56 115.26 125.54 115.4 125.56 115.3 125.52 115.3"/><path class="cls-6" d="M125.57,115.17l.14-.11Z"/><polygon class="cls-6" points="125.97 115.63 125.94 115.67 125.93 115.66 125.97 115.63"/><polygon class="cls-6" points="125.91 115.25 125.77 115.3 125.76 115.28 125.91 115.25"/><path class="cls-6" d="M126,115.6c.07,0,0,0,0,.05S126,115.6,126,115.6Z"/><path class="cls-6" d="M126.15,115.34v-.11l-.12.08c.07-.19.12,0,.21,0-.12.05-.17.12-.3.05A.27.27,0,0,0,126.15,115.34Z"/><path class="cls-6" d="M125.87,115.15c.07,0,0,0,0,.06S125.89,115.18,125.87,115.15Z"/><path class="cls-6" d="M126.05,115c.08,0,0,0,0,0S126,115,126.05,115Z"/><polygon class="cls-4" points="128.06 114.32 128.06 114.4 128.02 114.34 128.06 114.32"/><rect class="cls-6" x="127.23" y="112.85" width="0.05" height="0.02" transform="translate(-40.18 82.9) rotate(-31.42)"/><path class="cls-6" d="M127.61,110.52h0s-.08.11-.13.1S127.62,110.58,127.61,110.52Z"/><path class="cls-6" d="M128,110.85s.05.11.12.09C128,111,128,110.94,128,110.85Z"/><path class="cls-6" d="M128.35,110.84v0Z"/><path class="cls-4" d="M130.22,110.11c.51-.12.75-.55,1.1-.79a.74.74,0,0,1,.62-.63c-.06.08-.32.11-.23.27.26-.25.16.13.42-.16l-.08-.14c.39.1.74.29,1.11-.09a5,5,0,0,1,.94-.51c.16-.08.14.06.17.17-.52.52-1.42.61-1.75,1.21-.26.39-.57-.09-.86.13,0,0,.07,0,.1,0-.18,0,.13.25-.09.23.26,0,.56.09.79-.07a16.51,16.51,0,0,0-2.63.85C129.88,110.37,130.2,110.36,130.22,110.11Z"/><rect class="cls-8" x="130.81" y="109.9" width="0.09" height="0.02" transform="translate(-38.11 84.34) rotate(-31.42)"/><path class="cls-4" d="M132.38,112c.26-.29.62-.11,1-.16,0,.14-.17.21-.18.33,0-.08,0-.1-.05-.19l0,0s.07,0,.07-.09a.57.57,0,0,0-.46-.07l0,.15,0-.14c-.13.09-.31.17-.36.33.12,0,.28.16.21.31C132.33,112.4,132.16,112.15,132.38,112Z"/><path class="cls-8" d="M131.11,109.62c.08.16-.14,0-.13.2C130.89,109.71,131.13,109.65,131.11,109.62Z"/><path class="cls-4" d="M133,112.3c-.13,0-.22.2-.38.17C132.84,112.48,132.77,112.27,133,112.3Z"/><path class="cls-8" d="M131.37,109.6l0,.07c.1-.08.19.14.26,0,0,0,0,0-.07-.06.19,0,.08.24,0,.26s-.18,0-.24,0,0,.22-.15.15C131.16,109.87,131.34,109.75,131.37,109.6Z"/><polygon class="cls-4" points="133.12 112.19 133.03 112.28 133.03 112.22 133.12 112.19"/><path class="cls-8" d="M131.44,109.6v0Z"/><polygon class="cls-8" points="131.73 109.19 131.71 109.33 131.69 109.28 131.73 109.19"/><path class="cls-8" d="M131.92,109.62c.07.08.17-.06.15.07S132,109.57,131.92,109.62Z"/><path class="cls-8" d="M132.05,109.31c0,.14,0,.06-.15.16Z"/><polygon class="cls-8" points="131.68 108.98 131.59 108.97 131.63 108.96 131.68 108.98"/><path class="cls-8" d="M131.85,109.12l0,0L132,109c.19.2-.12.14-.17.23S131.78,109.14,131.85,109.12Z"/><polygon class="cls-8" points="132.19 109.41 132.09 109.45 132.14 109.38 132.19 109.41"/><polygon class="cls-8" points="132.19 108.85 132.12 108.87 132.16 108.81 132.19 108.85"/><path class="cls-4" d="M132.85,109.36c.25-.15.5-.32.8-.17.07.08.24.09.28.23a.9.9,0,0,1-.44.58.68.68,0,0,1-.62,0C132.62,109.8,132.76,109.55,132.85,109.36Z"/><path class="cls-4" d="M134.42,111.31c.08-.07.21,0,.28,0a.25.25,0,0,1-.08.28C134.39,111.78,134.22,111.43,134.42,111.31Z"/><path class="cls-8" d="M133.37,109.63l0,.17C133.35,109.69,133.17,109.75,133.37,109.63Z"/><polygon class="cls-8" points="132.91 108.85 132.8 108.87 132.82 108.82 132.91 108.85"/><path class="cls-8" d="M133.32,109.52c-.07,0,.05-.33-.14-.21,0-.11.26,0,.26,0l-.1.12c.14.06.15-.11.27,0l0,.15c-.18-.13-.09-.12-.27,0Z"/><path class="cls-8" d="M133.63,109.58l.08-.22c.09.18-.16.22,0,.35-.09-.07-.25.11-.29,0C133.55,109.58,133.47,109.55,133.63,109.58Z"/><polygon class="cls-8" points="133.14 108.64 133.06 108.71 133.1 108.65 133.14 108.64"/><rect class="cls-8" x="133.23" y="108.69" width="0.09" height="0.02" transform="translate(-37.13 85.43) rotate(-31.42)"/><path class="cls-4" d="M137.45,113.74c.84-.27,1.58.26,2.38.42.09.14,0,.24-.11.3-.37.1-.7-.24-1.11-.08a1.85,1.85,0,0,1-1.28-.38A.19.19,0,0,1,137.45,113.74Z"/><path class="cls-8" d="M134,108.31s-.1-.06,0-.1.22.18,0,.22Z"/><path class="cls-8" d="M134.11,108.11c.23,0-.07.09.08.19A.11.11,0,0,1,134.11,108.11Z"/><path class="cls-4" d="M137.52,111.25c.11-.19.39-.13.55-.08-.21.13-.34,0-.46.07v0c-.07,0-.1,0-.09.07s.17,0,.21.13c-.13,0,0,.14-.16.16.06.15.27,0,.35.06s.24-.26.16-.5l.25,0c0,.18-.2.15-.18.36a.65.65,0,0,1-.65.19C137.37,111.53,137.41,111.38,137.52,111.25Z"/><path class="cls-9" d="M137.54,111.43s0,.12-.06.11Z"/><path class="cls-4" d="M142.33,110.92c.24-.31.6-.09.89-.14-.19.13-.23.38-.47.47s-.29.07-.39,0S142.32,111,142.33,110.92Z"/><path class="cls-6" d="M142.44,110.94a1.1,1.1,0,0,0,.44-.17c.19,0,0,.28.16.09,0,.09-.19.14-.17.27-.15-.14-.3,0-.37.08C142.37,111.13,142.45,111,142.44,110.94Z"/><path class="cls-4" d="M144.81,110.67a.71.71,0,0,1,.69-.07c0,.17-.13.29-.26.42s-.27.08-.42,0A.26.26,0,0,1,144.81,110.67Z"/><path class="cls-6" d="M145,111c0-.09-.15-.07,0-.17l.06,0s0,.16-.07.15Z"/><path class="cls-6" d="M145.2,110.92s-.06.11-.1,0Z"/><path class="cls-6" d="M145.21,110.6c-.13.22.24,0,.17.21l-.09-.08v0c-.11,0-.15-.1-.17-.17Z"/><path class="cls-4" d="M144.5,112c.14-.08.47-.18.51.05s-.18.25-.33.28a.32.32,0,0,1-.24-.06C144.36,112.17,144.44,112.06,144.5,112Z"/><path class="cls-6" d="M144.73,112.23c0-.1-.13-.08-.17-.17l.17-.1c-.16.21.18,0,.18.16s-.09.12-.24.15Z"/></g><rect class="cls-5" x="180.56" y="13.56" width="14.89" height="28.37" transform="translate(150.14 213.97) rotate(-86.9)"/><g class="cls-7"><path class="cls-4" d="M174,23.83c-.13-.09-.09-.38.1-.36-.2.18,0,.22.14.27v-.07c.08.07,0,.24.11.23-.14-.08-.37.09-.25.25a.31.31,0,0,0,.28.06l-.06-.1c0,.09.26.15.16.28.39.19.7-.27,1.05-.3-.27.08-.26.3-.54.35a1.35,1.35,0,0,1-1-.26C174,24.05,173.75,23.71,174,23.83Z"/><path class="cls-4" d="M174.81,23.26c.17,0,.45.14.46.27-.08-.42-.53.15-.6-.23a4.48,4.48,0,0,1-.55.1C174.38,23.41,174.55,23.05,174.81,23.26Z"/><path class="cls-4" d="M175.36,23.6a.2.2,0,0,1,.22,0l-.27.05S175.46,23.69,175.36,23.6Z"/><path class="cls-4" d="M175.58,23.87c-.11.11-.13,0-.26-.05Z"/><path class="cls-4" d="M176.63,21.21a1.15,1.15,0,0,1,1-.13l.45.25c-.12.12-.12.28,0,.24a.24.24,0,0,0,.15-.27c.11.05.25-.1.33.06a1,1,0,0,1,.49-1l.19.14c.18-.56.62-.19,1-.45.73-.56.57.36,1.3-.15-.11.15-.35.37,0,.48s.3-.31.56-.28c.09.31-.82.51-.17.78.26,0,.44.22.66.32.63-.25,1.32.3,1.92-.24-.29.18,0,.35.06.53.37.17.62-.1.93-.11,0,.18.26.13.18.36a6.3,6.3,0,0,0-1.55.14c0,.24-.26.45,0,.62.57.38,1.17,1.09,1.7,1.16-1.12-.15-2.22,0-3.34-.11-.16.56.66.08.62.45-.38,0-.33.38-.48.63l-1.07,0c-.12.1-.06.19-.11.3-.43.24-.78-.51-1.22-.11-.39-.11-.48-.51-.89-.53-.19.27.3.1.4.33-.14.1-.37-.16-.49.06.16.29.73.32.58.73-.24-.17-.28.23-.52.15-.1.21.14.25.28.23-.15.19-.37-.08-.51,0s.39.15.11.31a.46.46,0,0,0-.41,0c0,.17.21.12.23.25-.74-.23-1.65,0-2.23-.65a1.23,1.23,0,0,1-.34-1c.16-.21.28-.77.67-.71a1.29,1.29,0,0,1,.76-.24c-.1-.12-.29-.3-.19-.5.48,0,.58.65,1.08.7-.12-.25-.18-.65-.47-.71-.11-.31.24-.69-.15-.84a.4.4,0,0,0,.16-.12c-.08-.16-.14-.16-.24-.32a1,1,0,0,1-1.41,0A.54.54,0,0,1,176.63,21.21Z"/><path class="cls-6" d="M176.74,21.21c.21.13.24,0,.44-.08l0,.06c.18.19.27-.29.43,0,.07,0-.15,0-.11.1s.11-.1.17,0a1,1,0,0,0-.27.16,1.56,1.56,0,0,1,0,.49l.09-.18c-.09.11,0,.2,0,.34-.22,0-.35-.11-.61-.1.26,0-.1-.1,0-.27,0,.18-.23.14-.22,0h.07l-.06-.18h0c-.16-.32.19.12.14-.17h-.22Z"/><path class="cls-6" d="M177,21.62c0-.09-.07-.05,0-.15.07.06.05,0,.05-.07.19.17-.12.17,0,.33a.18.18,0,0,1-.21,0C176.83,21.59,176.85,21.68,177,21.62Z"/><path class="cls-6" d="M177.1,21.87s-.22-.06-.2,0l.18-.14Z"/><path class="cls-6" d="M177,25.4c.23.15.2.26.5.45.07-.09-.07-.23.12-.19l-.07.06c.18.36.41-.26.61.08v-.07c.21,0,.14.09.43.07-.2,0-.18.12-.15.27-.16-.14-.44.13-.54-.16l.14-.06c-.24-.1-.6.13-.68,0l.06,0c-.17-.09-.39-.41-.49-.22C177,25.55,177.1,25.47,177,25.4Z"/><polygon class="cls-6" points="177.55 22.05 177.49 21.96 177.62 21.94 177.55 22.05"/><path class="cls-6" d="M177.46,25.36l0-.05c.31-.07-.08.22.11.32C177.43,25.51,177.34,25.51,177.46,25.36Z"/><polygon class="cls-6" points="177.6 25.52 177.66 25.61 177.58 25.56 177.6 25.52"/><polygon class="cls-6" points="177.86 26 177.73 26.03 177.8 25.93 177.86 26"/><polygon class="cls-6" points="178.13 25.59 178.02 25.61 178.06 25.59 178.13 25.59"/><polygon class="cls-6" points="178.22 25.49 178.02 25.5 178.11 25.48 178.22 25.49"/><path class="cls-6" d="M178.22,25.91v0Z"/><polygon class="cls-6" points="178.29 25.49 178.35 25.47 178.24 25.6 178.33 25.52 178.29 25.49"/><path class="cls-6" d="M178.42,25.39h0Z"/><polygon class="cls-6" points="178.51 26.14 178.45 26.16 178.45 26.14 178.51 26.14"/><polygon class="cls-6" points="178.71 25.71 178.54 25.66 178.54 25.64 178.71 25.71"/><path class="cls-6" d="M178.6,26.15c.11,0,0,0,0,.06S178.58,26.14,178.6,26.15Z"/><path class="cls-6" d="M178.9,26l.07-.1h-.18c.21-.14.15,0,.19.19-.15,0-.26,0-.34-.16A.34.34,0,0,0,178.9,26Z"/><path class="cls-6" d="M178.74,25.58c.09,0,0,.05,0,.07S178.74,25.63,178.74,25.58Z"/><path class="cls-6" d="M179,25.55c.11,0,0,.05,0,.05S179,25.58,179,25.55Z"/><polygon class="cls-4" points="181.54 26.26 181.49 26.35 181.5 26.26 181.54 26.26"/><rect class="cls-6" x="181.74" y="24.19" width="0.02" height="0.07" transform="translate(147.74 204.39) rotate(-86.9)"/><path class="cls-6" d="M183.74,22.1s0,0,0,0-.16.06-.2,0S183.71,22.16,183.74,22.1Z"/><path class="cls-6" d="M183.91,22.7s0,.15.05.18C183.81,22.91,183.86,22.81,183.91,22.7Z"/><path class="cls-6" d="M184.27,22.94l0,0Z"/><path class="cls-4" d="M186.67,23.51c.6.23,1.15-.05,1.67,0a.91.91,0,0,1,1.07-.21c-.11,0-.41-.11-.42.11.44-.06.07.25.54.14v-.2c.33.37.55.8,1.19.68a6.41,6.41,0,0,1,1.31.14c.22,0,.1.16.05.29-.89.17-1.87-.37-2.61,0-.54.21-.53-.49-1-.47,0,.07.07.05.11.05-.21-.08,0,.35-.25.16.3.15.5.49.85.49a20.45,20.45,0,0,0-3.26-1C186.14,23.52,186.48,23.74,186.67,23.51Z"/><rect class="cls-8" x="187.45" y="23.68" width="0.02" height="0.11" transform="translate(153.63 209.64) rotate(-86.9)"/><path class="cls-4" d="M187.57,26.89c.46-.1.7.33,1.07.5-.1.15-.32.1-.41.22.09-.06.07-.1.08-.24v.05s.11,0,.13,0S188.15,27,188,27l-.14.12L188,27a.87.87,0,0,0-.6.08c.1.11.18.36,0,.46C187.21,27.29,187.21,26.92,187.57,26.89Z"/><path class="cls-8" d="M187.92,23.62c0,.22-.17-.05-.27.12C187.64,23.56,187.92,23.66,187.92,23.62Z"/><path class="cls-4" d="M188,27.66c-.15-.07-.35.05-.5-.09C187.67,27.74,187.75,27.48,188,27.66Z"/><path class="cls-8" d="M188.19,23.79l-.06.06c.15,0,.09.27.3.13-.05,0,0-.07,0-.12.21.13-.08.31-.19.26.07-.11-.15-.16-.21-.21,0,.11-.14.23-.27.05C187.79,23.92,188.06,23.91,188.19,23.79Z"/><polygon class="cls-4" points="188.16 27.63 188.01 27.67 188.05 27.6 188.16 27.63"/><path class="cls-8" d="M188.26,23.84l.07-.07Z"/><polygon class="cls-8" points="188.84 23.63 188.72 23.75 188.75 23.69 188.84 23.63"/><path class="cls-8" d="M188.74,24.19c0,.13.22.06.1.18C188.69,24.34,188.83,24.17,188.74,24.19Z"/><path class="cls-8" d="M189.09,24c-.06.17-.07,0-.27.05Z"/><polygon class="cls-8" points="188.94 23.37 188.86 23.3 188.9 23.32 188.94 23.37"/><path class="cls-8" d="M189,23.64v0l.23-.08c0,.34-.23.06-.34.12C189,23.72,188.93,23.61,189,23.64Z"/><polygon class="cls-8" points="189.16 24.17 189.03 24.14 189.12 24.1 189.16 24.17"/><polygon class="cls-8" points="189.54 23.6 189.46 23.57 189.55 23.53 189.54 23.6"/><path class="cls-4" d="M189.86,24.58c.35,0,.73,0,.93.38,0,.13.18.25.13.43a1.13,1.13,0,0,1-.85.28c-.26-.08-.5-.16-.61-.45S189.64,24.7,189.86,24.58Z"/><path class="cls-4" d="M190.09,27.65c.14,0,.22.14.25.25s-.14.19-.27.23A.24.24,0,0,1,190.09,27.65Z"/><path class="cls-8" d="M190.2,25.22l-.09.19C190.14,25.26,189.92,25.2,190.2,25.22Z"/><polygon class="cls-8" points="190.29 24.1 190.16 24.05 190.2 24.01 190.29 24.1"/><path class="cls-8" d="M190.23,25.06c-.06-.07.28-.29,0-.3.13-.09.27.16.3.12l-.18.06c.1.16.22,0,.28.19l-.14.12c-.1-.24,0-.17-.28-.19Z"/><path class="cls-8" d="M190.5,25.34l.23-.16c0,.24-.31.11-.24.36,0-.14-.32-.06-.25-.26C190.42,25.29,190.36,25.2,190.5,25.34Z"/><polygon class="cls-8" points="190.66 24.05 190.53 24.07 190.62 24.03 190.66 24.05"/><rect class="cls-8" x="190.74" y="24.15" width="0.02" height="0.11" transform="translate(156.28 213.37) rotate(-86.9)"/><path class="cls-4" d="M191.47,32.22c1,.32,1.42,1.38,2.13,2.09,0,.2-.19.24-.32.23-.45-.16-.55-.73-1.08-.85a2.23,2.23,0,0,1-1-1.29A.23.23,0,0,1,191.47,32.22Z"/><path class="cls-8" d="M191.73,24.29c-.07,0-.06-.14,0-.13s.1.33-.14.23Z"/><path class="cls-8" d="M192,24.19c.2.19-.14,0-.06.24A.13.13,0,0,1,192,24.19Z"/><path class="cls-4" d="M193.27,29.75c.25-.12.5.14.62.3-.3,0-.36-.22-.51-.25l0,0c-.06-.05-.13,0-.13,0s.17.12.12.27c-.15,0-.12.13-.27.06-.05.19.25.21.32.3,0-.07.42-.09.5-.39l.28.15c-.08.21-.31,0-.43.24a.8.8,0,0,1-.8-.27C192.94,29.93,193.07,29.81,193.27,29.75Z"/><path class="cls-9" d="M193.18,29.94c0,.07-.06.15-.14.08Z"/><path class="cls-4" d="M198.38,32.77c.47-.15.69.33,1,.47-.29,0-.5.24-.8.16s-.35-.13-.38-.31S198.31,32.86,198.38,32.77Z"/><path class="cls-6" d="M198.49,32.87a1.64,1.64,0,0,0,.56.14c.19.14-.23.25.1.2-.09.06-.29,0-.36.16,0-.25-.3-.22-.43-.18C198.28,33,198.44,33,198.49,32.87Z"/><path class="cls-4" d="M201.08,34.25a.85.85,0,0,1,.75.41c-.08.2-.34.21-.56.24s-.32-.11-.4-.33A.32.32,0,0,1,201.08,34.25Z"/><path class="cls-6" d="M201,34.64c.11-.06-.1-.18.1-.19l0,.07c-.05,0-.12.17-.18.1Z"/><path class="cls-6" d="M201.3,34.77s-.14.08-.13,0Z"/><path class="cls-6" d="M201.53,34.45c-.29.14.26.15,0,.33l0-.13,0,0c-.13-.05-.08-.2-.05-.29Z"/><path class="cls-4" d="M199.84,35.38c.2,0,.61.14.49.4s-.36.13-.53.06a.44.44,0,0,1-.21-.24C199.58,35.45,199.73,35.39,199.84,35.38Z"/><path class="cls-6" d="M199.91,35.78c.09-.09-.08-.18,0-.29h.24c-.31.09.22.08.07.29s-.18.06-.35,0Z"/></g><rect class="cls-5" x="287.11" y="191.25" width="16.36" height="45.49" transform="translate(-39.53 69.47) rotate(-12.58)"/><g class="cls-10"><path class="cls-4" d="M289.1,192.07a8.94,8.94,0,0,1,2.57.3c.19.12,0,.32.17.4.69-.15.83.65,1.45.43.13.57.92.91,1.21,1.48a1.2,1.2,0,0,0,.88,0c.18.44-.51.36-.64.7,1,1.06.83,2.65,1.77,3.63-.19,0-.35-.12-.52-.16-.34.23.06.42.09.73a1.35,1.35,0,0,0,1.32.23c.06.26-.17.63-.46.58l.42,2.09a6.09,6.09,0,0,1,1,.66c-.42.45-.5-.61-1-.14,0,.4.13.77.57.79,0,.67-.92,1.56.15,1.91a5.64,5.64,0,0,1,1.44,2.87,6.85,6.85,0,0,1-1-2.36l-.07.62c-.23-.15,0-.53-.15-.85,0,.09-.37.29-.29.63.14.09.22-.05.28-.15-.06.1,0,.21,0,.33-.63.22-.36-.71-1-.73l-.69.15c.29-.34.76-.37.93-.84-.32-.17-.53-.76-.91-.35,0,.71-1.29,1-1.25,1.39s.52.16.31.49c-.61-.27-1.09.64-1.72.3a1.31,1.31,0,0,1,.07-.93l-.7-.08a.92.92,0,0,0-.61-1c-.19,0-.29.3-.5.27-1-.14-1.05-1.48-1.65-1.7-.25.33-.08.73-.21,1,.12-1.06-1.27-.16-1-1.33-.54.08-.13,1.22-.9,1a.78.78,0,0,1,.43-.73c0-.13-.25-.23-.41-.27-.27.26-.22.84-.69.67a1.82,1.82,0,0,0,.18-.95c-.5.07-.65-.78-1.21-.45.05.39-.35,1-.71.76-.11-.5,1-1.22.16-1.63-.05-.19-.34-.44-.4-.19-.14.63-.91.76-1.29,1.2,0-.31.46-1,.82-1.34-.33-.56.17-1.19,0-1.79-.38-.32-.62,0-1,.11.71-.88.88-2.27,1.34-3.41l-.56-.39c.81-.3.71-.91,1.36-1.38,0-.31-.3-.09-.33-.4.68,0,.49-.87,1.12-.73l-.13-.41c.42.11.89-.27.72-.67A1.13,1.13,0,0,0,289.1,192.07Z"/><polygon class="cls-6" points="286.36 196.02 286.41 195.89 286.44 196 286.36 196.02"/><path class="cls-6" d="M286.43,196.33l-.21.12,0,.07-.27-.14C286.17,196.58,286.2,196.22,286.43,196.33Z"/><path class="cls-6" d="M287.35,197.59c-.18.08-.1-.06,0-.11S287.42,197.58,287.35,197.59Z"/><path class="cls-6" d="M285.7,197.88c.05.07,0,.09-.05.13S285.57,197.83,285.7,197.88Z"/><polygon class="cls-6" points="285.98 198.06 285.85 197.85 285.93 197.83 285.98 198.06"/><path class="cls-6" d="M286.63,198.11c-.26-.1,0-.11.05-.13Z"/><path class="cls-6" d="M286,198.49c.23.35-.38.48-.3.82.1-.26,0-.71-.33-.6C285.88,198.88,285.51,198.28,286,198.49Z"/><path class="cls-6" d="M286.77,198.56c-.15.07-.12-.17-.15-.29C286.64,198.55,286.78,198.28,286.77,198.56Z"/><polygon class="cls-6" points="286.31 198.66 286.37 198.57 286.51 198.66 286.31 198.66"/><path class="cls-6" d="M286.17,198.73l-.1.1Z"/><path class="cls-6" d="M285.49,199.08l-.3.07C285.22,198.94,285.4,199,285.49,199.08Z"/><path class="cls-6" d="M286.38,198.8c.11.3.15.33,0,.4.09-.5-.44.14-.32-.21v0C286.24,199.07,286.23,198.84,286.38,198.8Z"/><path class="cls-6" d="M286.69,198.93l-.08.18Z"/><polygon class="cls-6" points="285.57 199.62 285.44 199.37 285.57 199.46 285.57 199.62"/><path class="cls-6" d="M286.4,199.44c.2-.21.06.22.34.08-.31.19-.33.11-.5-.13C286.31,199.38,286.4,199.4,286.4,199.44Z"/><polygon class="cls-6" points="285.88 199.75 285.97 199.61 286.02 199.68 285.88 199.75"/><polygon class="cls-6" points="287.05 199.49 287.08 199.6 286.92 199.4 287.02 199.54 287.05 199.49"/><path class="cls-6" d="M285.81,200.32s0,.05-.07.06l-.09-.22Z"/><path class="cls-6" d="M286.64,200.14s.58.27.12.37l.12-.19c-.27-.14-.32.35-.32.35l0-.36,0,0c-.13,0-.09-.22-.11-.3S286.52,200.13,286.64,200.14Z"/><polygon class="cls-6" points="287.8 200.16 287.66 200.07 287.79 200.12 287.8 200.16"/><polygon class="cls-6" points="286.25 200.86 286.35 200.8 286.37 201.07 286.25 200.86"/><path class="cls-6" d="M285.75,201.33l.3.09Z"/><path class="cls-6" d="M287.27,201.19a1.81,1.81,0,0,1,0,.52C287.27,201.55,287.08,201.2,287.27,201.19Z"/><path class="cls-6" d="M286.68,201.76c.15-.07,0-.15,0-.24l0,.27Z"/><path class="cls-4" d="M298.11,199.45c.12.17-.08.34-.18.28-.34.07-.42-.11-.55-.36C297.55,199.06,297.93,199.33,298.11,199.45Z"/><path class="cls-4" d="M300.4,204c.42.47,1.34.46,1.3,1.19,0,.16-.39.24-.49.11-.77-.59-2.15-1.24-1.54-2.41C300.06,203,300.31,203.58,300.4,204Z"/><path class="cls-4" d="M287.74,207.58c.08.14-.16.35-.29.3C287.87,207.79,287.26,207.56,287.74,207.58Z"/><polygon class="cls-4" points="287.15 208.15 287.11 207.96 287.07 208.12 287.15 208.15"/><path class="cls-6" d="M295,206.52c-.14.07-.21.29-.42.26C294.3,206.43,294.87,206.5,295,206.52Z"/><polygon class="cls-4" points="298.05 206.11 297.97 205.93 298.01 205.96 298.05 206.11"/><path class="cls-4" d="M293.14,209.08l-.18.12c.11-.07.06-.26,0-.29l-.09.14c-.17.12-.08-.18-.11-.29C292.94,208.72,293.24,208.82,293.14,209.08Z"/><path class="cls-4" d="M292.69,209.22v0Z"/><path class="cls-4" d="M292.68,210.41c-.24-.18,0-.23,0-.47l.14.25.27-.74A1.12,1.12,0,0,1,292.68,210.41Z"/><path class="cls-4" d="M291.7,210.15c-.16.36,0,.84-.24,1.21a1.18,1.18,0,0,1,.05-1.52Z"/><polygon class="cls-6" points="291.48 210.21 291.45 210.25 291.47 210.01 291.59 210.38 291.48 210.21"/><rect class="cls-4" x="299.71" y="208.48" width="0.04" height="0.2" transform="translate(-38.24 70.31) rotate(-12.58)"/><path class="cls-6" d="M291.53,210.63c-.09-.06.05.23,0,.41S291.19,210.51,291.53,210.63Z"/><path class="cls-4" d="M299.3,208.9l.13.21Z"/><path class="cls-4" d="M300.37,210.09a2.33,2.33,0,0,1-.19-.67Z"/><path class="cls-4" d="M299.82,209.62l.11.13Z"/><path class="cls-4" d="M296.73,210.9c-.38-.07-.31.59-.21.69-.26-.26,0-.64.09-.86Z"/><polygon class="cls-4" points="296.69 211.07 296.75 210.98 296.79 211.17 296.69 211.07"/><path class="cls-4" d="M300.63,210.55a.4.4,0,0,1-.25.14c.06.1.27-.38,0-.53C300.55,210.21,300.59,210.4,300.63,210.55Z"/><path class="cls-4" d="M296.76,211.93c-.1.1-.35-.12-.29-.21l.14.09c.19-.05.06-.26,0-.37C296.9,211.5,296.72,211.78,296.76,211.93Z"/><path class="cls-4" d="M297.53,212.91l-.12.15c-.23.05-.33-.21-.31-.33C297.26,212.42,297.44,212.69,297.53,212.91Z"/><path class="cls-4" d="M292.58,216.21c-.12,0-.07-.14-.09-.22S292.56,216.13,292.58,216.21Z"/><path class="cls-4" d="M292.64,216.67l0,.25Z"/><path class="cls-4" d="M292.55,217.89c.08.14-.18.24-.28.14S292.45,217.79,292.55,217.89Z"/><path class="cls-4" d="M299.17,224.33c-.07.06,0,.16,0,.2l-.14-.65.36.56Z"/><rect class="cls-4" x="299.35" y="225.52" width="0.08" height="0.31" transform="translate(-41.98 70.65) rotate(-12.58)"/><path class="cls-4" d="M300,225.57l-.05.13c-.13,0-.12-.17-.07-.3A.2.2,0,0,1,300,225.57Z"/><path class="cls-4" d="M299.66,226.73l.12,0c-.12,0-.12.19-.06.29l-.25-.78C299.63,226.42,299.57,226.51,299.66,226.73Z"/><path class="cls-4" d="M300,227.38c-.29-.06.19-.37,0-.63C299.8,227,300.4,227.16,300,227.38Z"/><path class="cls-4" d="M302.34,235.52l.05.19c-.22.09-.46-.05-.39-.31C302.12,235.42,302.28,235.42,302.34,235.52Z"/></g><rect class="cls-5" x="138.46" y="161.83" width="122.39" height="44" transform="translate(-56.25 274.21) rotate(-62.09)"/><g class="cls-10"><path class="cls-4" d="M225.29,128.16c2,1.31,3.65,3.83,4.75,5.12.17.56-.58.64-.36,1.11,1.66.88.55,2.77,2.21,3.42-.73,1.38.29,3.46-.12,5.14a3.36,3.36,0,0,0,1.74,1.63c-.4,1.21-1.68-.18-2.53.31.1,3.84-2.92,6.85-2.73,10.51-.46-.25-.49-.86-.76-1.24-1.12-.12-.63,1-1.12,1.66a3.65,3.65,0,0,0,2.32,2.77c-.34.64-1.47,1-2,.37l-2.78,5a16.19,16.19,0,0,1,.86,3.06c-1.64.2,0-2.1-1.78-2-.76.78-1.07,1.8-.2,2.62-1.1,1.42-4.62,1.57-3,4.18.45,2.72-.84,5.83-2.07,8.37a18.64,18.64,0,0,1,2-6.64l-1.19,1.14c-.22-.71,1-1,1.17-2-.2.13-1.26-.08-1.7.75.12.43.55.3.83.21-.28.09-.43.36-.67.59-1.67-.65.52-2.09-.76-3.24l-1.67-.88c1.18-.21,2.19.56,3.37-.11-.35-.9.25-2.47-1.25-2.32-1.25,1.47-4.39-.2-5,.68-.71.45.76,1.23-.23,1.53-.8-1.6-3.35-.59-4.05-2.38.2-.84,1.05-1.33,1.77-1.78l-1.28-1.39a2.54,2.54,0,0,0,.45-3.07c-.47-.25-1.13.11-1.49-.32-1.78-2,.44-4.85-.41-6.37-1.09.26-1.44,1.37-2.24,1.77,2.1-2-2.33-2.53.24-4.48-1.24-.78-2.39,2.28-3.51.39a2.12,2.12,0,0,1,2.17-.75c.23-.23-.13-.89-.39-1.27-1,.07-1.91,1.36-2.58.17a5.06,5.06,0,0,0,2-1.63c-1.15-.73,0-2.71-1.71-3-.58.88-2.37,1.35-2.76.31.63-1.2,4.17-.74,3.15-3,.25-.47.09-1.5-.48-1.09-1.39,1-3.18,0-4.73.22.48-.69,2.64-1.2,4-1.31.32-1.73,2.44-2.14,3.22-3.62-.25-1.32-1.38-1-2.35-1.6,3-.54,5.78-3.09,8.71-4.61l-.47-1.79c2.18.8,3-.63,5.2-.44.49-.69-.45-.71,0-1.4,1.38,1.2,2.5-.92,3.55.46l.44-1.07c.68,1,2.32,1,2.67-.12A3,3,0,0,0,225.29,128.16Z"/><polygon class="cls-6" points="212.78 131.47 213.11 131.29 212.96 131.57 212.78 131.47"/><path class="cls-6" d="M212.39,132.21l-.65-.11v.23l-.31-.75C211.4,132.28,212.12,131.59,212.39,132.21Z"/><path class="cls-6" d="M212.06,136.41c-.52-.15-.09-.28.14-.28A.16.16,0,1,1,212.06,136.41Z"/><path class="cls-6" d="M208.18,134.12c0,.23-.19.14-.33.18C207.9,134.21,208,133.79,208.18,134.12Z"/><polygon class="cls-6" points="208.44 134.97 208.55 134.32 208.74 134.41 208.44 134.97"/><path class="cls-6" d="M209.68,136.21c-.36-.66.14-.27.33-.18Z"/><path class="cls-6" d="M207.72,135.89c-.12,1.11-1.6.33-2,1.16.66-.36,1.25-1.46.37-1.81C206.82,136.47,207.09,134.61,207.72,135.89Z"/><path class="cls-6" d="M209.18,137.37c-.42-.1.06-.56.21-.84C209,137.13,209.71,136.82,209.18,137.37Z"/><polygon class="cls-6" points="208.07 136.78 208.36 136.7 208.48 137.12 208.07 136.78"/><path class="cls-6" d="M207.65,136.68l-.37,0Z"/><path class="cls-6" d="M205.65,136.21l-.73-.39C205.35,135.46,205.57,135.93,205.65,136.21Z"/><path class="cls-6" d="M208,137.2c-.3.79-.26.93-.67.83,1-.87-1.16-.5-.31-1l-.05.09C207.21,137.51,207.6,137,208,137.2Z"/><path class="cls-6" d="M208.37,138l-.47.22Z"/><polygon class="cls-6" points="204.88 137.46 205.03 136.71 205.16 137.13 204.88 137.46"/><path class="cls-6" d="M206.91,138.53c.75-.07-.3.56.54.76-1-.16-.88-.35-.81-1.14C206.82,138.25,207,138.44,206.91,138.53Z"/><polygon class="cls-6" points="205.28 138.26 205.7 138.13 205.7 138.36 205.28 138.26"/><polygon class="cls-6" points="208.14 139.78 208 140.05 208.01 139.35 208 139.82 208.14 139.78"/><path class="cls-6" d="M204.13,139.31c-.09-.05-.14,0-.23,0l.2-.6Z"/><path class="cls-6" d="M206.16,140.38c-.09,0,.71,1.56-.39,1l.56-.18c-.31-.75-1.26.16-1.26.16l.71-.68.05.14c-.23-.24.2-.61.3-.79C206.36,140,205.94,140.15,206.16,140.38Z"/><polygon class="cls-6" points="208.5 142.45 208.37 142.03 208.55 142.36 208.5 142.45"/><polygon class="cls-6" points="204.09 141.18 204.41 141.23 203.98 141.83 204.09 141.18"/><path class="cls-6" d="M202.26,141.28l.45.71Z"/><path class="cls-6" d="M205.62,143.64a5.37,5.37,0,0,1-.91,1.06C205,144.38,205.21,143.31,205.62,143.64Z"/><path class="cls-6" d="M203.42,143.78c.42.1.19-.37.48-.46l-.44.6Z"/><path class="cls-4" d="M230.83,159c-.06.56-.76.54-.84.26-.83-.44-.68-1-.52-1.69C230.36,157.22,230.66,158.45,230.83,159Z"/><path class="cls-4" d="M227.58,172.31c0,1.68,1.93,3.27.59,4.68-.29.32-1.21-.16-1.2-.63-.55-2.54-2.24-6.27,1.06-7.6C228.62,169.67,228.11,171.29,227.58,172.31Z"/><path class="cls-4" d="M195.43,157.52c-.1.42-1,.45-1.13.12C195.32,158.18,194.47,156.66,195.43,157.52Z"/><polygon class="cls-4" points="193.23 157.66 193.47 157.2 193.09 157.47 193.23 157.66"/><path class="cls-6" d="M212,168c-.41-.11-.93.21-1.3-.22C210.83,166.63,211.88,167.78,212,168Z"/><polygon class="cls-4" points="219.06 172.53 219.22 172.02 219.26 172.16 219.06 172.53"/><path class="cls-4" d="M203.83,170l-.56-.06c.33,0,.57-.41.53-.55l-.42.13c-.57-.06.15-.51.29-.79C204,169,204.49,169.66,203.83,170Z"/><path class="cls-4" d="M202.68,169.52l-.34.42Z"/><path class="cls-4" d="M200.56,172c-.17-.8.39-.5.77-1l-.16.75,1.85-1A3,3,0,0,1,200.56,172Z"/><path class="cls-4" d="M199,169.72c-.94.45-1.48,1.69-2.61,2-.21-1.17,1.33-3,2.78-3Z"/><polygon class="cls-6" points="198.47 169.43 198.33 169.47 198.81 169.01 198.41 169.99 198.47 169.43"/><rect class="cls-4" x="217.93" y="180.47" width="0.52" height="0.11" transform="translate(-43.46 288.85) rotate(-62.09)"/><path class="cls-6" d="M197.84,170.39c-.09-.28-.29.56-.77.78C196.46,171.2,197.34,169.54,197.84,170.39Z"/><path class="cls-4" d="M216.77,180.42l-.11.65Z"/><path class="cls-4" d="M216.86,184.72a6.46,6.46,0,0,1,.79-1.71Z"/><path class="cls-4" d="M216.58,182.8l0,.47Z"/><path class="cls-4" d="M208,180c-.63-.81-1.65.66-1.61,1-.07-1,1.06-1.33,1.67-1.59Z"/><polygon class="cls-4" points="207.61 180.3 207.9 180.22 207.65 180.68 207.61 180.3"/><path class="cls-4" d="M216.59,186.12a1,1,0,0,1-.74-.16c-.06.33,1.22-.3,1-1C217,185.29,216.79,185.75,216.59,186.12Z"/><path class="cls-4" d="M206.26,182.18c-.38,0-.49-.85-.21-.94l.13.43c.46.24.57-.41.72-.69C207.3,181.55,206.46,181.82,206.26,182.18Z"/><path class="cls-4" d="M206.13,185.55l-.51.08c-.56-.29-.31-1-.07-1.22C206.45,184.06,206.33,184.94,206.13,185.55Z"/><path class="cls-4" d="M190.23,183.63c-.27-.15.11-.42.21-.6C190.62,183.13,190.33,183.45,190.23,183.63Z"/><path class="cls-4" d="M189.56,184.69l-.48.46Z"/><path class="cls-4" d="M187.26,187c-.11.42-.8.17-.84-.2C186.42,186.82,187.22,186.65,187.26,187Z"/><path class="cls-4" d="M189.53,211.76c-.24,0-.29.32-.34.41l.83-1.57-.23,1.77Z"/><rect class="cls-4" x="187.21" y="214.79" width="0.84" height="0.21" transform="translate(-90.1 280.12) rotate(-62.09)"/><path class="cls-4" d="M189.15,215.82l-.33.18c-.18-.33.06-.56.39-.74A.56.56,0,0,1,189.15,215.82Z"/><path class="cls-4" d="M186.35,217.53l.28.15c-.28-.15-.57.17-.62.5l.84-2C186.84,216.84,186.55,216.93,186.35,217.53Z"/><path class="cls-4" d="M185.84,219.39c-.5-.62,1-.4,1.06-1.33C186.2,218.28,187.1,219.7,185.84,219.39Z"/><path class="cls-4" d="M176.47,240.21l-.24.46a.72.72,0,0,1-.25-1.31C176.21,239.6,176.52,239.88,176.47,240.21Z"/></g><circle class="cls-11" cx="74.47" cy="105.61" r="17"/><circle class="cls-11" cx="255.47" cy="105.61" r="17"/></g></g></svg>