<svg xmlns="http://www.w3.org/2000/svg" viewBox="0 0 332.03 323.23"><defs><style>.cls-1{fill:#b5cdff;}.cls-2,.cls-4,.cls-5{fill:#fff;}.cls-2,.cls-3,.cls-4,.cls-5,.cls-6{stroke:#fff;stroke-linecap:round;stroke-miterlimit:10;}.cls-2,.cls-3,.cls-6{stroke-width:1.78px;}.cls-3{fill:#003821;}.cls-4{stroke-width:0.55px;}.cls-5{stroke-width:0.57px;}</style></defs><title>Asset 7logo</title><g id="Layer_2" data-name="Layer 2"><g id="Layer_1-2" data-name="Layer 1"><polygon class="cls-1" points="156.54 4.15 121.56 97.24 156.54 158.91 201.6 97.24 156.54 4.15"/><polygon class="cls-1" points="214.65 107.92 157.13 199.82 107.33 107.92 20.16 256.75 73.53 323.16 270.39 323.16 308.93 254.38 214.65 107.92"/><polygon class="cls-1" points="20.16 230.07 0 185 10.08 4.15 43.29 107.92 29.65 187.97 36.17 205.75 20.16 230.07"/><polygon class="cls-1" points="302.38 230.22 322.54 185.15 312.46 4.3 279.25 108.07 292.89 188.12 286.37 205.91 302.38 230.22"/><polygon points="166.03 0 131.04 93.09 166.03 154.76 211.09 93.09 166.03 0"/><polygon points="224.14 103.77 166.62 195.68 116.81 103.77 29.65 252.6 83.01 319.01 279.87 319.01 318.42 250.23 224.14 103.77"/><polygon points="29.65 225.91 9.49 180.85 19.57 0 52.77 103.77 39.13 183.82 45.66 201.6 29.65 225.91"/><polygon points="311.87 226.07 332.03 181 321.95 0.15 288.74 103.92 302.38 183.97 295.86 201.75 311.87 226.07"/><polygon class="cls-2" points="226.79 148.53 202.48 200.72 232.72 222.65 248.73 198.34 226.79 148.53"/><polygon class="cls-2" points="116.01 148.63 140.32 200.81 110.08 222.75 94.07 198.44 116.01 148.63"/><circle class="cls-3" cx="117.69" cy="194.79" r="8.89"/><circle class="cls-3" cx="225.6" cy="194.79" r="8.89"/><rect class="cls-4" x="15.23" y="277.44" width="100.25" height="5.53" transform="translate(253.76 62.74) rotate(54.03)"/><rect class="cls-5" x="239.28" y="280.01" width="93.51" height="6.28" transform="translate(683.19 217.94) rotate(125.97)"/><polygon class="cls-2" points="182.47 116.59 159.24 116.36 147.82 96.13 159.64 76.12 182.87 76.35 194.28 96.58 182.47 116.59"/><polygon class="cls-6" points="185.73 118.6 162.5 118.37 151.08 98.13 162.9 78.13 186.13 78.36 197.54 98.59 185.73 118.6"/></g></g></svg>