<svg xmlns="http://www.w3.org/2000/svg" viewBox="0 0 326 326"><defs><style>.cls-1{stroke:#cde900;stroke-width:1.79px;}.cls-1,.cls-4{stroke-miterlimit:10;}.cls-2{fill:#000a0d;}.cls-3,.cls-4{fill:#fff;}.cls-4{stroke:#fff;}</style></defs><title>Asset 10logo</title><g id="Layer_2" data-name="Layer 2"><g id="Layer_1-2" data-name="Layer 1"><circle class="cls-1" cx="163" cy="163" r="162.1"/><path class="cls-2" d="M98.84,69.81H227.75a30,30,0,0,1,30,30v108.2A50.75,50.75,0,0,1,207,258.81H119.55a50.75,50.75,0,0,1-50.75-50.75V99.86A30,30,0,0,1,98.84,69.81Z"/><polygon class="cls-3" points="159.32 107.81 159.32 148.65 137.79 173.89 159.32 189.48 148.19 208.04 186.79 231.05 167.49 200.61 176.4 181.31 162.29 169.43 179.37 149.39 179.37 107.81 159.32 107.81"/><line class="cls-4" x1="79.89" y1="76.55" x2="240.74" y2="245.99"/></g></g></svg>